<svg width="464.14208984375px" height="146px" xmlns="http://www.w3.org/2000/svg" viewBox="17.928955078125 2 464.14208984375 146" style="background: rgba(0, 0, 0, 0);" preserveAspectRatio="xMidYMid"><defs><filter id="editing-extrusion" x="-100%" y="-100%" width="300%" height="300%"><feFlood result="color1" flood-color="#444"></feFlood><feConvolveMatrix order="8,8" divisor="1" kernelMatrix="1 0 0 0 0 0 0 0 0 1 0 0 0 0 0 0 0 0 1 0 0 0 0 0 0 0 0 1 0 0 0 0 0 0 0 0 1 0 0 0 0 0 0 0 0 1 0 0 0 0 0 0 0 0 1 0 0 0 0 0 0 0 0 1" in="SourceAlpha" result="extrude"></feConvolveMatrix><feComposite in="color1" in2="extrude" result="comp-extrude" operator="in"></feComposite><feOffset dx="4" dy="4" in="comp-extrude" result="offset-extrude"></feOffset><feMerge><feMergeNode in="offset-extrude"></feMergeNode><feMergeNode in="SourceGraphic"></feMergeNode></feMerge></filter></defs><g filter="url(#editing-extrusion)"><g transform="translate(89.4117660522461, 105.82435035705566)"><path d="M44.25-47.38L44.25-47.38L44.25-47.38Q44.19-47.06 44.19-46.72L44.19-46.72L44.19-46.72Q44.19-46.38 44.13-46.06L44.13-46.06L44.13-46.06Q43.63-45.63 43.28-45.50L43.28-45.50L43.28-45.50Q42.94-45.38 42.69-44.88L42.69-44.88L42.69-44.88Q42.50-44.56 42.50-44.19L42.50-44.19L42.50-44.19Q42.50-43.81 42.31-43.50L42.31-43.50L42.31-43.50Q42.13-43.06 41.41-42.59L41.41-42.59L41.41-42.59Q40.69-42.13 40.38-42L40.38-42L40.38-42Q40-41.81 39.59-41.69L39.59-41.69L39.59-41.69Q39.19-41.56 38.81-41.38L38.81-41.38L38.81-41.38Q38.25-41.13 37.91-41L37.91-41L37.91-41Q37.56-40.88 37.19-40.84L37.19-40.84L37.19-40.84Q36.81-40.81 36.38-40.78L36.38-40.78L36.38-40.78Q35.94-40.75 35.25-40.63L35.25-40.63L35.25-40.63Q35.06-40.63 35-40.53L35-40.53L35-40.53Q34.94-40.44 34.75-40.31L34.75-40.31L34.75-40.31Q34.56-40.19 34.19-40.09L34.19-40.09L34.19-40.09Q33.81-40 33.06-39.94L33.06-39.94L33.06-39.94Q32.38-39.88 32.03-39.84L32.03-39.84L32.03-39.84Q31.69-39.81 30.94-39.69L30.94-39.69L30.94-39.69Q30.50-39.56 30.13-39.31L30.13-39.31L30.13-39.31Q29.75-39.06 29.31-38.88L29.31-38.88L29.31-38.88Q28.44-38.38 28.03-37.91L28.03-37.91L28.03-37.91Q27.63-37.44 27.38-37.06L27.38-37.06L27.38-37.06Q27-36.44 27.03-35.66L27.03-35.66L27.03-35.66Q27.06-34.88 26.75-34L26.75-34L26.75-34Q26.50-33.38 25.94-32.75L25.94-32.75L25.94-32.75Q25.38-32.13 25.13-31.44L25.13-31.44L25.13-31.44Q25.06-31.13 25.13-30.75L25.13-30.75L25.13-30.75Q25.19-30.38 25.13-29.94L25.13-29.94L25.13-29.94Q25-29.13 24.56-28.28L24.56-28.28L24.56-28.28Q24.13-27.44 23.81-26.50L23.81-26.50L23.81-26.50Q23.69-26 23.72-25.50L23.72-25.50L23.72-25.50Q23.75-25 23.63-24.50L23.63-24.50L23.63-24.50Q23.44-23.31 23.06-21.97L23.06-21.97L23.06-21.97Q22.69-20.63 22.38-19.31L22.38-19.31L22.38-19.31Q22.25-18.56 22.28-17.78L22.28-17.78L22.28-17.78Q22.31-17 22.13-16.44L22.13-16.44L22.13-16.44Q22-15.88 21.66-15.38L21.66-15.38L21.66-15.38Q21.31-14.88 21.03-14.34L21.03-14.34L21.03-14.34Q20.75-13.81 20.66-13.22L20.66-13.22L20.66-13.22Q20.56-12.63 20.94-11.94L20.94-11.94L20.94-11.94Q20.75-9.63 20.31-7.25L20.31-7.25L20.31-7.25Q19.88-4.88 19.19-2.69L19.19-2.69L19.19-2.69Q19-2 18.59-0.88L18.59-0.88L18.59-0.88Q18.19 0.25 17.81 0.56L17.81 0.56L17.81 0.56Q17.44 0.88 16.84 0.97L16.84 0.97L16.84 0.97Q16.25 1.06 15.66 0.94L15.66 0.94L15.66 0.94Q15.06 0.81 14.56 0.50L14.56 0.50L14.56 0.50Q14.06 0.19 13.88-0.25L13.88-0.25L13.88-0.25Q13.50 0 13.22 0.44L13.22 0.44L13.22 0.44Q12.94 0.88 12.44 1.13L12.44 1.13L12.44 1.13Q11.81 1.44 11.16 1.38L11.16 1.38L11.16 1.38Q10.50 1.31 9.81 1.63L9.81 1.63L9.81 1.63Q9.19 1.88 8.69 2.22L8.69 2.22L8.69 2.22Q8.19 2.56 7.69 2.69L7.69 2.69L7.69 2.69Q7.38 2.81 7.09 2.78L7.09 2.78L7.09 2.78Q6.81 2.75 6.56 2.88L6.56 2.88L6.56 2.88Q6.19 3.06 6 3.50L6 3.50L6 3.50Q5.81 3.94 5.44 4.19L5.44 4.19L5.44 4.19Q4.94 4.06 4.31 4.03L4.31 4.03L4.31 4.03Q3.69 4 3.38 3.69L3.38 3.69L3.38 3.69Q3.25 2.06 3.88 0.84L3.88 0.84L3.88 0.84Q4.50-0.38 4.81-1.56L4.81-1.56L4.81-1.56Q5.06-2.25 5.16-2.88L5.16-2.88L5.16-2.88Q5.25-3.50 5.38-4.31L5.38-4.31L5.38-4.31Q5.63-5.19 6-6.16L6-6.16L6-6.16Q6.38-7.13 6.56-8.13L6.56-8.13L6.56-8.13Q6.75-8.81 6.78-9.53L6.78-9.53L6.78-9.53Q6.81-10.25 7.06-10.94L7.06-10.94L7.06-10.94Q7.19-11.44 7.69-12.03L7.69-12.03L7.69-12.03Q8.19-12.63 8.44-13.31L8.44-13.31L8.44-13.31Q8.69-14 8.88-14.88L8.88-14.88L8.88-14.88Q9.06-15.75 9.38-16.56L9.38-16.56L9.38-16.56Q9.69-17.63 10.28-18.38L10.28-18.38L10.28-18.38Q10.88-19.13 10.81-20.06L10.81-20.06L10.81-20.06Q10.81-20.50 10.63-20.75L10.63-20.75L10.63-20.75Q10.44-21 10.44-21.31L10.44-21.31L10.44-21.31Q10.38-21.81 10.56-22.69L10.56-22.69L10.56-22.69Q10.75-23.56 10.94-24.25L10.94-24.25L10.94-24.25Q11.25-25.56 11.56-26.63L11.56-26.63L11.56-26.63Q11.88-27.69 12.19-28.75L12.19-28.75L12.19-28.75Q12.31-29.25 12.41-29.72L12.41-29.72L12.41-29.72Q12.50-30.19 12.63-30.56L12.63-30.56L12.63-30.56Q12.75-31.06 13.03-31.41L13.03-31.41L13.03-31.41Q13.31-31.75 13.44-32.13L13.44-32.13L13.44-32.13Q13.56-32.56 13.66-33.19L13.66-33.19L13.66-33.19Q13.75-33.81 13.94-34.38L13.94-34.38L13.94-34.38Q14.13-34.81 14.34-35.19L14.34-35.19L14.34-35.19Q14.56-35.56 14.63-35.94L14.63-35.94L14.63-35.94Q14.75-36.75 14.41-37.44L14.41-37.44L14.41-37.44Q14.06-38.13 14.06-38.88L14.06-38.88L14.06-38.88Q13.38-39.38 12.44-39.47L12.44-39.47L12.44-39.47Q11.50-39.56 10.63-39.50L10.63-39.50L10.63-39.50Q9.75-39.44 9.06-39.41L9.06-39.41L9.06-39.41Q8.38-39.38 7.50-39.31L7.50-39.31L7.50-39.31Q6.06-39.25 5-39.06L5-39.06L5-39.06Q3.94-38.88 2.97-38.69L2.97-38.69L2.97-38.69Q2-38.50 1-38.41L1-38.41L1-38.41Q0-38.31-1.25-38.38L-1.25-38.38L-1.25-38.38Q-1.13-39.06-1.09-39.84L-1.09-39.84L-1.09-39.84Q-1.06-40.63-0.88-41.13L-0.88-41.13L-0.88-41.13Q-0.50-41.44-0.13-41.47L-0.13-41.47L-0.13-41.47Q0.25-41.50 0.69-41.56L0.69-41.56L0.69-41.56Q0.44-41.94 0.47-42.25L0.47-42.25L0.47-42.25Q0.50-42.56 0.59-42.84L0.59-42.84L0.59-42.84Q0.69-43.13 0.84-43.41L0.84-43.41L0.84-43.41Q1-43.69 1.06-43.94L1.06-43.94L1.06-43.94Q1.19-44.56 1.16-45.19L1.16-45.19L1.16-45.19Q1.13-45.81 1.69-46.19L1.69-46.19L1.69-46.19Q2.56-46.25 3.25-46.19L3.25-46.19L3.25-46.19Q3.94-46.13 4.56-46.03L4.56-46.03L4.56-46.03Q5.19-45.94 5.84-45.88L5.84-45.88L5.84-45.88Q6.50-45.81 7.38-45.88L7.38-45.88L7.38-45.88Q9.38-46 10.66-46.19L10.66-46.19L10.66-46.19Q11.94-46.38 13.81-46.44L13.81-46.44L13.81-46.44Q15.13-46.44 16.34-46.41L16.34-46.41L16.34-46.41Q17.56-46.38 18.63-46.25L18.63-46.25L18.63-46.25Q19.75-46.06 20.28-46.06L20.28-46.06L20.28-46.06Q20.81-46.06 21.25-46.09L21.25-46.09L21.25-46.09Q21.69-46.13 22.19-46.19L22.19-46.19L22.19-46.19Q22.69-46.25 23.69-46.25L23.69-46.25L23.69-46.25Q24.75-46.25 25.72-46.41L25.72-46.41L25.72-46.41Q26.69-46.56 27.75-46.50L27.75-46.50L27.75-46.50Q28.94-46.50 29.41-46.34L29.41-46.34L29.41-46.34Q29.88-46.19 30.19-46.06L30.19-46.06L30.19-46.06Q30.50-45.94 30.88-45.84L30.88-45.84L30.88-45.84Q31.25-45.75 32.25-45.88L32.25-45.88L32.25-45.88Q32.94-46 33.13-46.16L33.13-46.16L33.13-46.16Q33.31-46.31 34-46.44L34-46.44L34-46.44Q34.63-46.50 35.25-46.47L35.25-46.47L35.25-46.47Q35.88-46.44 36.56-46.50L36.56-46.50L36.56-46.50Q38.44-46.69 40.34-47.16L40.34-47.16L40.34-47.16Q42.25-47.63 44.25-47.38ZM33.69-3.19L33.69-3.19L33.69-3.19Q33.81-4.63 34.66-5.78L34.66-5.78L34.66-5.78Q35.50-6.94 35.94-8.19L35.94-8.19L35.94-8.19Q36.19-9 36.28-9.91L36.28-9.91L36.28-9.91Q36.38-10.81 36.41-11.72L36.41-11.72L36.41-11.72Q36.44-12.63 36.56-13.53L36.56-13.53L36.56-13.53Q36.69-14.44 37-15.31L37-15.31L37-15.31Q36.69-15.88 36.75-16.56L36.75-16.56L36.75-16.56Q36.81-17.25 36.81-18L36.81-18L36.81-18Q37.13-18.44 37.31-19L37.31-19L37.31-19Q37.50-19.56 38.19-19.75L38.19-19.75L38.19-19.75Q38.81-21.13 38.81-22.59L38.81-22.59L38.81-22.59Q38.81-24.06 39.13-25.63L39.13-25.63L39.13-25.63Q39.19-25.94 39.38-26.19L39.38-26.19L39.38-26.19Q39.56-26.44 39.69-26.75L39.69-26.75L39.69-26.75Q40.13-28.06 40.13-29.53L40.13-29.53L40.13-29.53Q40.13-31 40.63-32.31L40.63-32.31L40.63-32.31Q41-32.44 41.56-32.72L41.56-32.72L41.56-32.72Q42.13-33 42.72-33.28L42.72-33.28L42.72-33.28Q43.31-33.56 43.88-33.75L43.88-33.75L43.88-33.75Q44.44-33.94 44.88-33.88L44.88-33.88L44.88-33.88Q45.19-33.75 45.50-33.53L45.50-33.53L45.50-33.53Q45.81-33.31 46.25-33L46.25-33L46.25-33Q46.56-32.81 46.84-32.56L46.84-32.56L46.84-32.56Q47.13-32.31 47.44-32.13L47.44-32.13L47.44-32.13Q47.69-32 48.09-31.91L48.09-31.91L48.09-31.91Q48.50-31.81 48.63-31.69L48.63-31.69L48.63-31.69Q48.69-31.63 49.03-31.25L49.03-31.25L49.03-31.25Q49.38-30.88 49.72-30.44L49.72-30.44L49.72-30.44Q50.06-30 50.38-29.59L50.38-29.59L50.38-29.59Q50.69-29.19 50.75-29.06L50.75-29.06L50.75-29.06Q50.81-28.69 50.69-28.22L50.69-28.22L50.69-28.22Q50.56-27.75 50.34-27.28L50.34-27.28L50.34-27.28Q50.13-26.81 49.91-26.34L49.91-26.34L49.91-26.34Q49.69-25.88 49.56-25.50L49.56-25.50L49.56-25.50Q49.38-24.81 49.19-24.16L49.19-24.16L49.19-24.16Q49-23.50 48.69-22.81L48.69-22.81L48.69-22.81Q48.38-22 48-20.94L48-20.94L48-20.94Q47.63-19.88 47.50-18.69L47.50-18.69L47.50-18.69Q47.38-17.81 46.84-17.38L46.84-17.38L46.84-17.38Q46.31-16.94 46.13-16.13L46.13-16.13L46.13-16.13Q46-15.56 46-14.94L46-14.94L46-14.94Q46-14.31 46.03-13.72L46.03-13.72L46.03-13.72Q46.06-13.13 46.03-12.56L46.03-12.56L46.03-12.56Q46-12 45.75-11.50L45.75-11.50L45.75-11.50Q45.56-11.19 45.19-11.03L45.19-11.03L45.19-11.03Q44.81-10.88 44.56-10.56L44.56-10.56L44.56-10.56Q44.19-9.94 43.91-9L43.91-9L43.91-9Q43.63-8.06 43.44-7.03L43.44-7.03L43.44-7.03Q43.25-6 43.28-4.97L43.28-4.97L43.28-4.97Q43.31-3.94 43.63-3.13L43.63-3.13L43.63-3.13Q43.31-2.13 42.53-1.38L42.53-1.38L42.53-1.38Q41.75-0.63 40.69-0.22L40.69-0.22L40.69-0.22Q39.63 0.19 38.41 0.22L38.41 0.22L38.41 0.22Q37.19 0.25 35.94-0.19L35.94-0.19L35.94-0.19Q35.44-0.94 34.75-1.59L34.75-1.59L34.75-1.59Q34.06-2.25 33.69-3.19ZM89 1.50L89 1.50L89 1.50Q88.69 1.44 88.69 1.06L88.69 1.06L88.69 1.06Q88.69 0.69 88.44 0.56L88.44 0.56L88.44 0.56Q87.63 0.56 87.16 0.59L87.16 0.59L87.16 0.59Q86.69 0.63 85.81 0.31L85.81 0.31L85.81 0.31Q85.44-0.56 85.44-1.50L85.44-1.50L85.44-1.50Q85.44-2.44 85.75-3.31L85.75-3.31L85.75-3.31Q85.88-3.69 86.16-3.97L86.16-3.97L86.16-3.97Q86.44-4.25 86.56-4.56L86.56-4.56L86.56-4.56Q86.63-4.88 86.53-5.25L86.53-5.25L86.53-5.25Q86.44-5.63 86.44-5.94L86.44-5.94L86.44-5.94Q86.50-7.81 87.25-9.66L87.25-9.66L87.25-9.66Q88-11.50 88.31-13.31L88.31-13.31L88.31-13.31Q88.38-13.81 88.25-14.53L88.25-14.53L88.25-14.53Q88.13-15.25 88.25-15.75L88.25-15.75L88.25-15.75Q88.38-16.31 88.72-16.81L88.72-16.81L88.72-16.81Q89.06-17.31 89.19-17.94L89.19-17.94L89.19-17.94Q89.44-19.19 89.47-20.41L89.47-20.41L89.47-20.41Q89.50-21.63 90-22.81L90-22.81L90-22.81Q87.88-20.63 86.13-18.34L86.13-18.34L86.13-18.34Q84.38-16.06 82.81-13.06L82.81-13.06L82.81-13.06Q82.13-11.63 81.13-10.47L81.13-10.47L81.13-10.47Q80.13-9.31 79.44-7.75L79.44-7.75L79.44-7.75Q79.31-7.44 79.31-7.16L79.31-7.16L79.31-7.16Q79.31-6.88 79.19-6.56L79.19-6.56L79.19-6.56Q78.88-5.88 78.34-5.13L78.34-5.13L78.34-5.13Q77.81-4.38 77.50-3.44L77.50-3.44L77.50-3.44Q77.31-2.75 77.09-1.94L77.09-1.94L77.09-1.94Q76.88-1.13 76.53-0.41L76.53-0.41L76.53-0.41Q76.19 0.31 75.69 0.81L75.69 0.81L75.69 0.81Q75.19 1.31 74.38 1.38L74.38 1.38L74.38 1.38Q73.63 1.38 73.16 1.09L73.16 1.09L73.16 1.09Q72.69 0.81 72.06 1L72.06 1L72.06 1Q71.13 0.31 70.16-0.28L70.16-0.28L70.16-0.28Q69.19-0.88 68.63-2.06L68.63-2.06L68.63-2.06Q68-3.25 67.72-5.09L67.72-5.09L67.72-5.09Q67.44-6.94 67.06-8.44L67.06-8.44L67.06-8.44Q66.94-8.94 66.72-9.41L66.72-9.41L66.72-9.41Q66.50-9.88 66.44-10.25L66.44-10.25L66.44-10.25Q66.38-11 66.44-11.72L66.44-11.72L66.44-11.72Q66.50-12.44 66.38-13.13L66.38-13.13L66.38-13.13Q66.19-13.88 65.59-14.44L65.59-14.44L65.59-14.44Q65-15 64.69-15.50L64.69-15.50L64.69-15.50Q64.50-16.44 64.44-17.53L64.44-17.53L64.44-17.53Q64.38-18.63 64.31-19.69L64.31-19.69L64.31-19.69Q63.69-19.44 63.56-18.69L63.56-18.69L63.56-18.69Q63.44-17.94 63.13-17.06L63.13-17.06L63.13-17.06Q62.94-16.63 62.72-16.25L62.72-16.25L62.72-16.25Q62.50-15.88 62.44-15.56L62.44-15.56L62.44-15.56Q62.38-15.19 62.50-14.81L62.50-14.81L62.50-14.81Q62.63-14.44 62.56-13.94L62.56-13.94L62.56-13.94Q62.50-13.56 62.34-13L62.34-13L62.34-13Q62.19-12.44 62.06-11.94L62.06-11.94L62.06-11.94Q61.75-11.06 61.31-10.19L61.31-10.19L61.31-10.19Q60.88-9.31 60.63-8.25L60.63-8.25L60.63-8.25Q60.25-7.19 60.16-5.97L60.16-5.97L60.16-5.97Q60.06-4.75 59.75-3.88L59.75-3.88L59.75-3.88Q59.63-3.50 59.25-3.19L59.25-3.19L59.25-3.19Q58.88-2.88 58.50-2.47L58.50-2.47L58.50-2.47Q58.13-2.06 57.84-1.56L57.84-1.56L57.84-1.56Q57.56-1.06 57.56-0.44L57.56-0.44L57.56-0.44Q56.88 0.06 56.09 0.41L56.09 0.41L56.09 0.41Q55.31 0.75 54.25 1.13L54.25 1.13L54.25 1.13Q53.69 1.31 53.09 1.38L53.09 1.38L53.09 1.38Q52.50 1.44 52 1.22L52 1.22L52 1.22Q51.50 1 51.25 0.47L51.25 0.47L51.25 0.47Q51-0.06 51.13-1L51.13-1L51.13-1Q51.25-1.88 51.72-2.91L51.72-2.91L51.72-2.91Q52.19-3.94 52.50-5.19L52.50-5.19L52.50-5.19Q52.94-6.81 53.28-8.13L53.28-8.13L53.28-8.13Q53.63-9.44 54.38-10.38L54.38-10.38L54.38-11.56L54.38-11.56Q54.63-12 54.81-12.41L54.81-12.41L54.81-12.41Q55-12.81 55.38-13.13L55.38-13.13L55.38-13.13Q55.19-14 55.28-14.81L55.28-14.81L55.28-14.81Q55.38-15.63 55.66-16.41L55.66-16.41L55.66-16.41Q55.94-17.19 56.25-17.91L56.25-17.91L56.25-17.91Q56.56-18.63 56.81-19.31L56.81-19.31L56.81-19.31Q57.06-20.06 57.13-20.66L57.13-20.66L57.13-20.66Q57.19-21.25 57.50-21.75L57.50-21.75L57.50-21.75Q57.63-22 57.94-22.16L57.94-22.16L57.94-22.16Q58.25-22.31 58.44-22.63L58.44-22.63L58.44-22.63Q58.75-23.19 59.16-24.22L59.16-24.22L59.16-24.22Q59.56-25.25 59.69-25.88L59.69-25.88L59.69-25.88Q59.88-26.44 59.84-27.03L59.84-27.03L59.84-27.03Q59.81-27.63 59.75-28.22L59.75-28.22L59.75-28.22Q59.69-28.81 59.72-29.38L59.72-29.38L59.72-29.38Q59.75-29.94 60.06-30.38L60.06-30.38L60.06-30.38Q60.25-30.69 60.72-30.94L60.72-30.94L60.72-30.94Q61.19-31.19 61.50-31.38L61.50-31.38L61.50-31.38Q62.19-31.81 62.81-32.09L62.81-32.09L62.81-32.09Q63.44-32.38 64.31-32.69L64.31-32.69L64.31-32.69Q64.63-32.81 65-32.94L65-32.94L65-32.94Q65.38-33.06 65.63-33.06L65.63-33.06L65.63-33.06Q66.31-33.06 66.88-32.63L66.88-32.63L66.88-32.63Q67.44-32.19 68.19-31.88L68.19-31.88L68.19-31.88Q68.50-31.75 68.81-31.75L68.81-31.75L68.81-31.75Q69.13-31.75 69.31-31.69L69.31-31.69L69.31-31.69Q70.44-31.19 71.31-30.47L71.31-30.47L71.31-30.47Q72.19-29.75 72.81-29.13L72.81-29.13L72.81-29.13Q73.50-26.75 73.47-24.19L73.47-24.19L73.47-24.19Q73.44-21.63 73.69-19.25L73.69-19.25L73.69-19.25Q73.81-18.88 73.94-18.50L73.94-18.50L73.94-18.50Q74.06-18.13 74.13-17.75L74.13-17.75L74.13-17.75Q74.19-17.06 74.09-16.44L74.09-16.44L74.09-16.44Q74-15.81 74.13-15.19L74.13-15.19L74.13-15.19Q74.31-13.94 74.78-12.94L74.78-12.94L74.78-12.94Q75.25-11.94 75.50-10.75L75.50-10.75L75.50-10.75Q76.13-11.06 76.50-11.72L76.50-11.72L76.50-11.72Q76.88-12.38 77.19-13L77.19-13L77.19-13Q77.81-14.31 78.44-15.47L78.44-15.47L78.44-15.47Q79.06-16.63 79.94-17.69L79.94-17.69L79.94-17.69Q80.63-18.63 81-19.75L81-19.75L81-19.75Q81.38-20.88 82.38-21.50L82.38-21.50L82.38-21.50Q82.75-21.81 83.19-21.88L83.19-21.88L83.19-21.88Q83.63-21.94 83.94-22.38L83.94-22.38L83.94-22.38Q84.25-24.75 85.16-26.44L85.16-26.44L85.16-26.44Q86.06-28.13 87.25-29.75L87.25-29.75L87.25-29.75Q87.75-30.38 88.41-31.41L88.41-31.41L88.41-31.41Q89.06-32.44 89.69-32.69L89.69-32.69L89.69-32.69Q90.25-32.94 91.09-32.78L91.09-32.78L91.09-32.78Q91.94-32.63 92.63-32.63L92.63-32.63L92.63-32.63Q93.56-32.63 94.22-32.88L94.22-32.88L94.22-32.88Q94.88-33.13 95.47-33.38L95.47-33.38L95.47-33.38Q96.06-33.63 96.72-33.81L96.72-33.81L96.72-33.81Q97.38-34 98.31-33.88L98.31-33.88L98.31-33.88Q98.44-34 98.63-34.03L98.63-34.03L98.63-34.03Q98.81-34.06 99-34.19L99-34.19L99-34.19Q99.56-33.94 100.13-33.59L100.13-33.59L100.13-33.59Q100.69-33.25 101.16-32.78L101.16-32.78L101.16-32.78Q101.63-32.31 101.91-31.72L101.91-31.72L101.91-31.72Q102.19-31.13 102.13-30.44L102.13-30.44L102.13-30.44Q102.13-30.13 101.88-29.75L101.88-29.75L101.88-29.75Q101.63-29.38 101.44-28.88L101.44-28.88L101.44-28.88Q101.31-28.50 101.13-28.06L101.13-28.06L101.13-28.06Q100.94-27.63 100.81-27.25L100.81-27.25L100.81-27.25Q100.63-26.56 100.88-25.84L100.88-25.84L100.88-25.84Q101.13-25.13 100.81-24.69L100.81-24.69L100.81-24.69Q100.56-24.38 100.16-24.19L100.16-24.19L100.16-24.19Q99.75-24 99.56-23.63L99.56-23.63L99.56-23.63Q99.25-23.19 99.16-22.50L99.16-22.50L99.16-22.50Q99.06-21.81 98.88-21.25L98.88-21.25L98.88-21.25Q98.50-20 98.16-18.81L98.16-18.81L98.16-18.81Q97.81-17.63 97.56-16.31L97.56-16.31L97.56-16.31Q97.38-15.25 97.22-14.25L97.22-14.25L97.22-14.25Q97.06-13.25 96.38-12.75L96.38-12.75L96.38-12.75Q96.19-11.75 96.22-10.78L96.22-10.78L96.22-10.78Q96.25-9.81 96.13-8.88L96.13-8.88L96.13-8.88Q95.88-7.06 95.13-5.38L95.13-5.38L95.13-5.38Q94.38-3.69 93.94-2.06L93.94-2.06L93.94-2.06Q93.69-1.13 93.53-0.41L93.53-0.41L93.53-0.41Q93.38 0.31 92.75 0.88L92.75 0.88L92.75 0.88Q91.75 1 90.81 1.25L90.81 1.25L90.81 1.25Q89.88 1.50 89 1.50ZM135.06-29.19L135.06-29.19L135.06-29.19Q133.38-28.38 131.69-28.38L131.69-28.38L131.69-28.38Q130-28.38 127.94-28.50L127.94-28.50L127.94-28.50Q127.38-28.50 126.72-28.44L126.72-28.44L126.72-28.44Q126.06-28.38 125.50-28.31L125.50-28.31L125.50-28.31Q122.56-28 120.56-26.09L120.56-26.09L120.56-26.09Q118.56-24.19 117.63-21.31L117.63-21.31L117.63-21.31Q117.31-20.25 117.13-19.38L117.13-19.38L117.13-19.38Q116.94-18.50 117.94-18.38L117.94-18.38L117.94-18.38Q118.56-18.25 119.19-18.38L119.19-18.38L119.19-18.38Q119.81-18.50 120.47-18.72L120.47-18.72L120.47-18.72Q121.13-18.94 121.75-19.13L121.75-19.13L121.75-19.13Q122.38-19.31 123-19.31L123-19.31L123-19.31Q123.25-19.31 123.47-19.19L123.47-19.19L123.47-19.19Q123.69-19.06 123.94-19.06L123.94-19.06L123.94-19.06Q125-18.94 126.19-19.22L126.19-19.22L126.19-19.22Q127.38-19.50 128.38-19.25L128.38-19.25L128.38-19.25Q128.56-19.19 128.72-19.03L128.72-19.03L128.72-19.03Q128.88-18.88 129.19-18.75L129.19-18.75L129.19-18.75Q130-18.44 131.13-18.34L131.13-18.34L131.13-18.34Q132.25-18.25 132.94-17.94L132.94-17.94L132.94-17.94Q133.25-17.81 133.56-17.47L133.56-17.47L133.56-17.47Q133.88-17.13 133.88-17L133.88-17L133.88-17Q133.88-16.31 133.06-16.13L133.06-16.13L133.06-16.13Q132.25-15.94 131.69-15.88L131.69-15.88L131.69-15.88Q131.19-15.81 130.69-15.88L130.69-15.88L130.69-15.88Q130.19-15.94 129.69-15.81L129.69-15.81L129.69-15.81Q128.81-15.69 128-15.47L128-15.47L128-15.47Q127.19-15.25 126.25-14.94L126.25-14.94L126.25-14.94Q125.19-14.56 124.25-14.03L124.25-14.03L124.25-14.03Q123.31-13.50 122.19-13.38L122.19-13.38L122.19-13.38Q121.38-13.25 120.63-13.38L120.63-13.38L120.63-13.38Q119.88-13.50 119-13.38L119-13.38L119-13.38Q118.69-13.31 118.41-13.19L118.41-13.19L118.41-13.19Q118.13-13.06 117.81-13L117.81-13L117.81-13Q117.25-12.88 116.97-12.84L116.97-12.84L116.97-12.84Q116.69-12.81 116.53-12.69L116.53-12.69L116.53-12.69Q116.38-12.56 116.22-12.31L116.22-12.31L116.22-12.31Q116.06-12.06 115.75-11.56L115.75-11.56L115.75-11.56Q115.25-10.44 115.13-9.16L115.13-9.16L115.13-9.16Q115-7.88 114.88-6.44L114.88-6.44L114.88-6.44Q115.56-5.75 116.19-5.34L116.19-5.34L116.19-5.34Q116.81-4.94 118.13-4.94L118.13-4.94L118.13-4.94Q118.81-4.94 119.22-5.09L119.22-5.09L119.22-5.09Q119.63-5.25 120.31-5.31L120.31-5.31L120.31-5.31Q121-5.31 121.69-5.22L121.69-5.22L121.69-5.22Q122.38-5.13 123.25-5.19L123.25-5.19L123.25-5.19Q125.06-5.31 126.31-5.66L126.31-5.66L126.31-5.66Q127.56-6 129.38-5.88L129.38-5.88L129.38-5.88Q129.75-5.88 130.72-5.81L130.72-5.81L130.72-5.81Q131.69-5.75 132.69-5.66L132.69-5.66L132.69-5.66Q133.69-5.56 134.47-5.38L134.47-5.38L134.47-5.38Q135.25-5.19 135.25-4.88L135.25-4.88L135.25-4.88Q135.25-4.50 134.78-4.09L134.78-4.09L134.78-4.09Q134.31-3.69 133.72-3.34L133.72-3.34L133.72-3.34Q133.13-3 132.53-2.78L132.53-2.78L132.53-2.78Q131.94-2.56 131.75-2.50L131.75-2.50L131.75-2.50Q130.69-2.19 129.69-2.34L129.69-2.34L129.69-2.34Q128.69-2.50 127.50-2.38L127.50-2.38L127.50-2.38Q126.63-2.25 125.94-2L125.94-2L125.94-2Q125.25-1.75 124.56-1.47L124.56-1.47L124.56-1.47Q123.88-1.19 123.16-0.91L123.16-0.91L123.16-0.91Q122.44-0.63 121.50-0.56L121.50-0.56L121.50-0.56Q120.25-0.44 119.38-0.28L119.38-0.28L119.38-0.28Q118.50-0.13 117.31 0.13L117.31 0.13L117.31 0.13Q116.81 0.25 116.38 0.41L116.38 0.41L116.38 0.41Q115.94 0.56 115.44 0.69L115.44 0.69L115.44 0.69Q113.63 1.06 111.53 0.84L111.53 0.84L111.53 0.84Q109.44 0.63 107 0.88L107 0.88L107 0.88Q105.44 1.06 104.22 1.34L104.22 1.34L104.22 1.34Q103 1.63 101.75 1.50L101.75 1.50L101.75 1.50Q101.31 1.44 100.91 1.41L100.91 1.41L100.91 1.41Q100.50 1.38 100.19 1.06L100.19 1.06L100.19 1.06Q100.31 0.56 100.75 0.19L100.75 0.19L100.75 0.19Q101.19-0.19 101.63-0.50L101.63-0.50L101.63-0.50Q102.06-0.88 102.47-1.28L102.47-1.28L102.47-1.28Q102.88-1.69 103.25-2.06L103.25-2.06L103.25-2.06Q103.63-2.56 103.88-3.28L103.88-3.28L103.88-3.28Q104.13-4 104.34-4.75L104.34-4.75L104.34-4.75Q104.56-5.50 104.84-6.16L104.84-6.16L104.84-6.16Q105.13-6.81 105.56-7.31L105.56-7.31L105.56-7.31Q105.06-8.44 105.59-9.88L105.59-9.88L105.59-9.88Q106.13-11.31 106.56-12.88L106.56-12.88L106.56-12.88Q106.69-13.25 106.69-13.63L106.69-13.63L106.69-13.63Q106.69-14 106.81-14.31L106.81-14.31L106.81-14.31Q106.94-14.94 107.38-15.41L107.38-15.41L107.38-15.41Q107.81-15.88 107.94-16.38L107.94-16.38L107.94-16.38Q108-16.69 107.97-17L107.97-17L107.97-17Q107.94-17.31 108-17.63L108-17.63L108-17.63Q108.13-18.56 108.47-19.41L108.47-19.41L108.47-19.41Q108.81-20.25 108.94-20.94L108.94-20.94L108.94-20.94Q109.06-21.44 108.97-21.97L108.97-21.97L108.97-21.97Q108.88-22.50 108.94-23L108.94-23L108.94-23Q109.06-24.25 109.47-25.38L109.47-25.38L109.47-25.38Q109.88-26.50 109.94-27.38L109.94-27.38L109.94-27.38Q110-28.06 109.75-28.88L109.75-28.88L109.75-28.88Q109.50-29.69 109.25-30.13L109.25-30.13L109.25-30.13Q109.06-30.44 108.69-30.78L108.69-30.78L108.69-30.78Q108.31-31.13 107.94-31.44L107.94-31.44L107.94-31.44Q107.56-31.75 107.28-32.03L107.28-32.03L107.28-32.03Q107-32.31 107-32.56L107-32.56L107-32.56Q107.06-33.25 107.56-33.28L107.56-33.28L107.56-33.28Q108.06-33.31 108.50-33.69L108.50-33.69L108.50-33.69Q110.75-33.63 112.78-33.19L112.78-33.19L112.78-33.19Q114.81-32.75 117-32.63L117-32.63L117-32.63Q117.81-32.50 118.69-32.66L118.69-32.66L118.69-32.66Q119.56-32.81 120.38-32.88L120.38-32.88L120.38-32.88Q121.69-32.94 123.34-32.50L123.34-32.50L123.34-32.50Q125-32.06 126.63-32.19L126.63-32.19L126.63-32.19Q128.81-32.31 130.75-32.31L130.75-32.31L130.75-32.31Q132.69-32.31 134.81-32.44L134.81-32.44L134.81-32.44Q135.19-32.13 135.94-32.16L135.94-32.16L135.94-32.16Q136.69-32.19 137.47-32.28L137.47-32.28L137.47-32.28Q138.25-32.38 138.91-32.31L138.91-32.31L138.91-32.31Q139.56-32.25 139.81-31.75L139.81-31.75L139.81-31.75Q140.19-30.88 139.69-30.25L139.69-30.25L139.69-30.25Q139.19-29.63 138.31-29.44L138.31-29.44L138.31-29.44Q138.06-29.44 137.63-29.38L137.63-29.38L137.63-29.38Q137.19-29.31 136.69-29.25L136.69-29.25L136.69-29.25Q136.19-29.19 135.72-29.19L135.72-29.19L135.72-29.19Q135.25-29.19 135.06-29.19ZM169.13-16.63L169.13-16.63L169.13-16.63Q170.50-15.56 171.97-14.50L171.97-14.50L171.97-14.50Q173.44-13.44 174.31-11.94L174.31-11.94L174.31-11.94Q174.13-11.38 174.25-11.03L174.25-11.03L174.25-11.03Q174.38-10.69 174.66-10.41L174.66-10.41L174.66-10.41Q174.94-10.13 175.22-9.84L175.22-9.84L175.22-9.84Q175.50-9.56 175.63-9.13L175.63-9.13L175.63-9.13Q175.81-8.31 175.50-7.28L175.50-7.28L175.50-7.28Q175.19-6.25 175.06-5.25L175.06-5.25L175.06-5.25Q174.94-4.75 174.91-4.22L174.91-4.22L174.91-4.22Q174.88-3.69 174.75-3.19L174.75-3.19L174.75-3.19Q174.50-1.88 174.38-0.69L174.38-0.69L174.38-0.69Q174.25 0.50 174.69 1.81L174.69 1.81L174.69 1.81Q175 2.81 175.78 4.03L175.78 4.03L175.78 4.03Q176.56 5.25 177.38 5.63L177.38 5.63L177.38 5.63Q177.69 5.81 177.88 5.78L177.88 5.78L177.88 5.78Q178.06 5.75 178.38 5.88L178.38 5.88L178.38 5.88Q178.75 6.06 178.97 6.44L178.97 6.44L178.97 6.44Q179.19 6.81 179.75 7L179.75 7L179.75 7Q180.63 6.44 181.69 6.72L181.69 6.72L181.69 6.72Q182.75 7 183.81 6.94L183.81 6.94L183.81 6.94Q184.13 6.94 184.38 6.78L184.38 6.78L184.38 6.78Q184.63 6.63 184.88 6.63L184.88 6.63L184.88 6.63Q186.31 6.50 187.84 6.38L187.84 6.38L187.84 6.38Q189.38 6.25 190.81 5.81L190.81 5.81L190.81 5.81Q191.50 5.63 192.25 5.19L192.25 5.19L192.25 5.19Q193 4.75 193.75 4.31L193.75 4.31L193.75 4.31Q194.75 3.69 195.78 3L195.78 3L195.78 3Q196.81 2.31 198.13 2.75L198.13 2.75L198.13 2.75Q198.19 3.94 197.75 4.66L197.75 4.66L197.75 4.66Q197.31 5.38 196.63 5.91L196.63 5.91L196.63 5.91Q195.94 6.44 195.19 6.94L195.19 6.94L195.19 6.94Q194.44 7.44 193.94 8.06L193.94 8.06L193.94 8.06Q192.81 8.38 192.13 8.91L192.13 8.91L192.13 8.91Q191.44 9.44 190.56 10L190.56 10L190.56 10Q190.06 10.25 189.59 10.38L189.59 10.38L189.59 10.38Q189.13 10.50 188.69 10.81L188.69 10.81L188.69 10.81Q188.19 11.06 187.81 11.50L187.81 11.50L187.81 11.50Q187.44 11.94 187 12.25L187 12.25L187 12.25Q186.50 12.56 185.84 12.66L185.84 12.66L185.84 12.66Q185.19 12.75 184.63 12.88L184.63 12.88L184.63 12.88Q182.94 13.38 181.06 13.72L181.06 13.72L181.06 13.72Q179.19 14.06 177.28 14.16L177.28 14.16L177.28 14.16Q175.38 14.25 173.50 13.97L173.50 13.97L173.50 13.97Q171.63 13.69 169.94 12.94L169.94 12.94L169.94 12.94Q169 12.56 168.41 11.97L168.41 11.97L168.41 11.97Q167.81 11.38 167.13 10.69L167.13 10.69L167.13 10.69Q166.31 10 165.41 9.09L165.41 9.09L165.41 9.09Q164.50 8.19 164 7.31L164 7.31L164 7.31Q163.81 6.81 163.66 6.13L163.66 6.13L163.66 6.13Q163.50 5.44 163.31 4.75L163.31 4.75L163.31 4.75Q163.13 4.06 162.84 3.22L162.84 3.22L162.84 3.22Q162.56 2.38 162.56 1.44L162.56 1.44L162.56 1.44Q162.50-0.13 162.84-1.84L162.84-1.84L162.84-1.84Q163.19-3.56 163.47-5.22L163.47-5.22L163.47-5.22Q163.75-6.88 163.75-8.41L163.75-8.41L163.75-8.41Q163.75-9.94 163.13-11.13L163.13-11.13L163.13-11.13Q162.94-11.50 162.59-11.84L162.59-11.84L162.59-11.84Q162.25-12.19 161.94-12.63L161.94-12.63L161.94-12.63Q161.25-13.50 160.44-14.22L160.44-14.22L160.44-14.22Q159.63-14.94 158.19-15.13L158.19-15.13L158.19-15.13Q157.19-15.25 155.94-15.16L155.94-15.16L155.94-15.16Q154.69-15.06 154.13-14.63L154.13-14.63L154.13-14.63Q153.25-14.13 153.16-13.03L153.16-13.03L153.16-13.03Q153.06-11.94 152.81-10.75L152.81-10.75L152.81-10.75Q152.50-9.31 151.97-8.13L151.97-8.13L151.97-8.13Q151.44-6.94 151.63-5.44L151.63-5.44L151.63-5.44Q151.75-4.81 152-3.94L152-3.94L152-3.94Q152.25-3.06 152.50-2.56L152.50-2.56L152.50-2.56Q152.69-2.13 153.13-1.50L153.13-1.50L153.13-1.50Q153.56-0.88 153.25-0.38L153.25-0.38L153.25-0.38Q152.88 0.13 152 0L152 0L152 0Q151.13-0.13 150.25-0.19L150.25-0.19L150.25-0.19Q149.19-0.25 148.47-0.28L148.47-0.28L148.47-0.28Q147.75-0.31 147.13-0.28L147.13-0.28L147.13-0.28Q146.50-0.25 145.81-0.16L145.81-0.16L145.81-0.16Q145.13-0.06 144.13 0.06L144.13 0.06L144.13 0.06Q143.63 0.13 143.34 0.19L143.34 0.19L143.34 0.19Q143.06 0.25 142.84 0.34L142.84 0.34L142.84 0.34Q142.63 0.44 142.41 0.53L142.41 0.53L142.41 0.53Q142.19 0.63 141.75 0.75L141.75 0.75L141.75 0.75Q141.38 0.88 141.06 1.09L141.06 1.09L141.06 1.09Q140.75 1.31 140.44 1.44L140.44 1.44L140.44 1.44Q139.38 1.75 138.13 1.84L138.13 1.84L138.13 1.84Q136.88 1.94 135.75 1.94L135.75 1.94L135.75 1.94Q134.69 2 133.59 1.91L133.59 1.91L133.59 1.91Q132.50 1.81 131.63 1.50L131.63 1.50L131.63 1.50Q131.75 0.75 132.31 0.50L132.31 0.50L132.31 0.50Q132.88 0.25 133.25-0.19L133.25-0.19L133.25-0.19Q134.88-0.50 136.53-1.59L136.53-1.59L136.53-1.59Q138.19-2.69 138.69-4.31L138.69-4.31L138.69-4.31Q138.88-4.88 138.94-5.53L138.94-5.53L138.94-5.53Q139-6.19 139.13-6.81L139.13-6.81L139.13-6.81Q139.44-8.44 139.75-10.13L139.75-10.13L139.75-10.13Q140.06-11.81 140.56-13.50L140.56-13.50L140.56-13.50Q140.69-13.81 140.88-14.06L140.88-14.06L140.88-14.06Q141.06-14.31 141.19-14.63L141.19-14.63L141.19-14.63Q141.56-15.69 141.66-16.84L141.66-16.84L141.66-16.84Q141.75-18 142.06-19.06L142.06-19.06L142.06-19.06Q142.38-19.88 142.69-20.59L142.69-20.59L142.69-20.59Q143-21.31 143.19-22.06L143.19-22.06L143.19-22.06Q143.38-22.88 143.53-23.63L143.53-23.63L143.53-23.63Q143.69-24.38 144.13-25L144.13-25L144.13-25Q144.25-26.06 144.38-27L144.38-27L144.38-27Q144.50-27.94 144.44-29.19L144.44-29.19L144.44-29.19Q145.13-30 145.72-30.91L145.72-30.91L145.72-30.91Q146.31-31.81 146.50-33.06L146.50-33.06L146.50-33.06Q146.63-33.75 146.47-34.38L146.47-34.38L146.47-34.38Q146.31-35 146.31-35.75L146.31-35.75L146.31-35.75Q146.38-37.38 146.59-38.66L146.59-38.66L146.59-38.66Q146.81-39.94 146.94-41.56L146.94-41.56L146.94-41.56Q146.44-42.69 145.41-43.09L145.41-43.09L145.41-43.09Q144.38-43.50 143.19-44.25L143.19-44.25L143.19-44.25Q143-44.31 142.69-44.50L142.69-44.50L142.69-44.50Q142.38-44.69 142.03-44.91L142.03-44.91L142.03-44.91Q141.69-45.13 141.47-45.38L141.47-45.38L141.47-45.38Q141.25-45.63 141.25-45.81L141.25-45.81L141.25-45.81Q141.31-46.25 141.78-46.53L141.78-46.53L141.78-46.53Q142.25-46.81 142.84-46.91L142.84-46.91L142.84-46.91Q143.44-47 144.06-46.97L144.06-46.97L144.06-46.97Q144.69-46.94 145.13-46.88L145.13-46.88L145.13-46.88Q146.69-46.56 148.13-46.25L148.13-46.25L148.13-46.25Q149.56-45.94 151.09-45.72L151.09-45.72L151.09-45.72Q152.63-45.50 154.34-45.44L154.34-45.44L154.34-45.44Q156.06-45.38 158.25-45.56L158.25-45.56L158.25-45.56Q159.06-45.63 159.66-45.78L159.66-45.78L159.66-45.78Q160.25-45.94 161-46L161-46L161-46Q162.06-46.06 163.09-46.22L163.09-46.22L163.09-46.22Q164.13-46.38 165.19-46.25L165.19-46.25L165.19-46.25Q167.13-46.06 168.63-46.28L168.63-46.28L168.63-46.28Q170.13-46.50 171.81-46.31L171.81-46.31L171.81-46.31Q172.63-46.19 173.34-45.84L173.34-45.84L173.34-45.84Q174.06-45.50 174.78-45.13L174.78-45.13L174.78-45.13Q175.50-44.75 176.22-44.47L176.22-44.47L176.22-44.47Q176.94-44.19 177.69-44.13L177.69-44.13L177.69-44.13Q178.81-43.44 179.84-42.38L179.84-42.38L179.84-42.38Q180.88-41.31 181.75-40L181.75-40L181.75-40Q182.44-38.94 183.06-37.56L183.06-37.56L183.06-37.56Q183.69-36.19 184-35.25L184-35.25L184-35.25Q184.44-34.13 184.38-33.03L184.38-33.03L184.38-33.03Q184.31-31.94 184.06-30.94L184.06-30.94L184.06-30.94Q183.56-29.13 182.81-27.69L182.81-27.69L182.81-27.69Q182.06-26.25 181.16-24.97L181.16-24.97L181.16-24.97Q180.25-23.69 179.28-22.41L179.28-22.41L179.28-22.41Q178.31-21.13 177.50-19.75L177.50-19.75L177.50-19.75Q177-19.56 176.53-19.53L176.53-19.53L176.53-19.53Q176.06-19.50 175.63-19.31L175.63-19.31L175.63-19.31Q174.94-19 174.44-18.41L174.44-18.41L174.44-18.41Q173.94-17.81 173.13-17.56L173.13-17.56L173.13-17.56Q172.81-17.44 172.47-17.50L172.47-17.50L172.47-17.50Q172.13-17.56 171.81-17.50L171.81-17.50L171.81-17.50Q171.13-17.31 170.53-17.03L170.53-17.03L170.53-17.03Q169.94-16.75 169.13-16.63ZM165.44-21.94L165.44-21.94L165.44-21.94Q166.44-23.19 167.63-24.28L167.63-24.28L167.63-24.28Q168.81-25.38 169.50-26.81L169.50-26.81L169.50-26.81Q169.81-27.50 170.03-28.47L170.03-28.47L170.03-28.47Q170.25-29.44 170.44-30.31L170.44-30.31L170.44-30.31Q170.75-32.19 170.50-33.63L170.50-33.63L170.50-33.63Q170.25-35.06 169.63-36.19L169.63-36.19L169.63-36.19Q169-37.31 168.06-38.13L168.06-38.13L168.06-38.13Q167.13-38.94 166-39.56L166-39.56L166-39.56Q165.13-40.06 164.22-40.66L164.22-40.66L164.22-40.66Q163.31-41.25 162-40.88L162-40.88L162-40.88Q161.06-40.31 160.47-39.06L160.47-39.06L160.47-39.06Q159.88-37.81 159.38-36.75L159.38-36.75L159.38-36.75Q159.19-36.31 158.97-35.88L158.97-35.88L158.97-35.88Q158.75-35.44 158.63-35.13L158.63-35.13L158.63-35.13Q158.56-34.69 158.63-34.22L158.63-34.22L158.63-34.22Q158.69-33.75 158.56-33.25L158.56-33.25L158.56-33.25Q158.44-32.81 157.94-32.66L157.94-32.66L157.94-32.66Q157.44-32.50 157.38-32.06L157.38-32.06L157.38-32.06Q157.38-31.63 157.72-31.28L157.72-31.28L157.72-31.28Q158.06-30.94 158.06-30.44L158.06-30.44L158.06-30.44Q158-29.69 157.53-28.75L157.53-28.75L157.53-28.75Q157.06-27.81 156.94-26.81L156.94-26.81L156.94-26.81Q156.81-25.88 156.53-25L156.53-25L156.53-25Q156.25-24.13 155.97-23.25L155.97-23.25L155.97-23.25Q155.69-22.38 155.47-21.47L155.47-21.47L155.47-21.47Q155.25-20.56 155.31-19.63L155.31-19.63L155.31-19.63Q156.56-19.38 158-19.44L158-19.44L158-19.44Q159.44-19.50 160.81-19.81L160.81-19.81L160.81-19.81Q162.19-20.13 163.41-20.66L163.41-20.66L163.41-20.66Q164.63-21.19 165.44-21.94ZM219.56-27.25L219.56-27.25L219.56-27.25Q220.19-26 220.50-24.94L220.50-24.94L220.50-24.94Q220.81-23.88 221-22.06L221-22.06L221-22.06Q221.13-20.81 221.28-19.84L221.28-19.84L221.28-19.84Q221.44-18.88 221.31-17.44L221.31-17.44L221.31-17.44Q221.25-16.44 221-15.34L221-15.34L221-15.34Q220.75-14.25 220.38-13.31L220.38-13.31L220.38-13.31Q219.81-11.63 219.31-10.38L219.31-10.38L219.31-10.38Q218.81-9.13 218.13-7.69L218.13-7.69L218.13-7.69Q217.69-6.88 217.25-6.38L217.25-6.38L217.25-6.38Q216.81-5.88 216.31-5.31L216.31-5.31L216.31-5.31Q216.19-5.13 216.09-4.88L216.09-4.88L216.09-4.88Q216-4.63 215.81-4.44L215.81-4.44L215.81-4.44Q215-3.50 213.59-2.50L213.59-2.50L213.59-2.50Q212.19-1.50 211-1.06L211-1.06L211-1.06Q210.56-0.94 210.09-0.91L210.09-0.91L210.09-0.91Q209.63-0.88 209.13-0.75L209.13-0.75L209.13-0.75Q208.50-0.50 208.06-0.03L208.06-0.03L208.06-0.03Q207.63 0.44 206.94 0.63L206.94 0.63L206.94 0.63Q206.56 0.75 206.03 0.84L206.03 0.84L206.03 0.84Q205.50 0.94 205 1.06L205 1.06L205 1.06Q203.75 1.38 201.91 1.69L201.91 1.69L201.91 1.69Q200.06 2 198.50 1.63L198.50 1.63L198.50 1.63Q198.25 1.56 198 1.38L198 1.38L198 1.38Q197.75 1.19 197.44 1.06L197.44 1.06L197.44 1.06Q197.13 0.94 196.81 0.88L196.81 0.88L196.81 0.88Q196.50 0.81 196.25 0.69L196.25 0.69L196.25 0.69Q195.44 0.38 194.69-0.19L194.69-0.19L194.69-0.19Q193.94-0.75 193.13-1.06L193.13-1.06L193.13-1.06Q192.25-1.56 191.38-1.97L191.38-1.97L191.38-1.97Q190.50-2.38 190.19-3.44L190.19-3.44L190.19-3.44Q189.13-3.75 188.69-4.88L188.69-4.88L188.69-4.88Q188.25-6 187.63-6.88L187.63-6.88L187.63-6.88Q187.44-7.19 187.09-7.41L187.09-7.41L187.09-7.41Q186.75-7.63 186.63-7.94L186.63-7.94L186.63-7.94Q186.19-8.63 185.94-10.16L185.94-10.16L185.94-10.16Q185.69-11.69 185.63-12.75L185.63-12.75L185.63-12.75Q185.56-13.88 185.78-14.91L185.78-14.91L185.78-14.91Q186-15.94 186.28-16.94L186.28-16.94L186.28-16.94Q186.56-17.94 186.91-18.88L186.91-18.88L186.91-18.88Q187.25-19.81 187.50-20.69L187.50-20.69L187.50-20.69Q187.75-21.75 188.44-22.38L188.44-22.38L188.44-22.38Q189.13-23 189.75-23.75L189.75-23.75L189.75-23.75Q190-24 190.13-24.31L190.13-24.31L190.13-24.31Q190.25-24.63 190.50-24.94L190.50-24.94L190.50-24.94Q191-25.56 191.63-26.03L191.63-26.03L191.63-26.03Q192.25-26.50 192.81-27L192.81-27L192.81-27Q193.44-27.50 194.13-27.97L194.13-27.97L194.13-27.97Q194.81-28.44 195.25-28.94L195.25-28.94L195.25-28.94Q195.75-29.63 196.03-30.31L196.03-30.31L196.03-30.31Q196.31-31 196.94-31.50L196.94-31.50L196.94-31.50Q197.63-32.06 198.47-32.31L198.47-32.31L198.47-32.31Q199.31-32.56 200.44-32.88L200.44-32.88L200.44-32.88Q201.50-33.13 202.53-33.59L202.53-33.59L202.53-33.59Q203.56-34.06 204.75-34.19L204.75-34.19L204.75-34.19Q205.88-34.31 207.19-34.34L207.19-34.34L207.19-34.34Q208.50-34.38 209.78-34.25L209.78-34.25L209.78-34.25Q211.06-34.13 212.22-33.81L212.22-33.81L212.22-33.81Q213.38-33.50 214.25-32.94L214.25-32.94L214.25-32.94Q214.69-32.69 215.16-32.19L215.16-32.19L215.16-32.19Q215.63-31.69 216.06-31.25L216.06-31.25L216.06-31.25Q217.06-30.25 217.78-29.22L217.78-29.22L217.78-29.22Q218.50-28.19 219.56-27.25ZM205.94-30.06L205.94-30.06L205.94-30.06Q205.69-30.06 205.22-29.88L205.22-29.88L205.22-29.88Q204.75-29.69 204.28-29.47L204.28-29.47L204.28-29.47Q203.81-29.25 203.44-29L203.44-29L203.44-29Q203.06-28.75 202.88-28.63L202.88-28.63L202.88-28.63Q202.13-27.94 201.53-26.91L201.53-26.91L201.53-26.91Q200.94-25.88 200.19-25.06L200.19-25.06L200.19-25.06Q199.88-24.75 199.53-24.59L199.53-24.59L199.53-24.59Q199.19-24.44 199-24.19L199-24.19L199-24.19Q197.94-23 197.47-21.44L197.47-21.44L197.47-21.44Q197-19.88 196.50-18.44L196.50-18.44L196.50-18.44Q195.94-16.94 195.44-15.06L195.44-15.06L195.44-15.06Q194.94-13.19 195.13-11.50L195.13-11.50L195.13-11.50Q195.19-11.13 195.41-10.53L195.41-10.53L195.41-10.53Q195.63-9.94 195.81-9.44L195.81-9.44L195.81-9.44Q196.06-8.88 196.28-8.34L196.28-8.34L196.28-8.34Q196.50-7.81 196.75-7.38L196.75-7.38L196.75-7.38Q197.13-6.63 197.72-5.78L197.72-5.78L197.72-5.78Q198.31-4.94 199.09-4.34L199.09-4.34L199.09-4.34Q199.88-3.75 200.84-3.47L200.84-3.47L200.84-3.47Q201.81-3.19 202.94-3.50L202.94-3.50L202.94-3.50Q203.63-3.75 204.63-4.28L204.63-4.28L204.63-4.28Q205.63-4.81 206.44-5.31L206.44-5.31L206.44-5.31Q207.63-6.06 208.13-6.84L208.13-6.84L208.13-6.84Q208.63-7.63 209.13-8.88L209.13-8.88L209.13-8.88Q209.25-9.19 209.47-9.47L209.47-9.47L209.47-9.47Q209.69-9.75 209.88-10.06L209.88-10.06L209.88-10.06Q210.25-10.75 210.50-11.56L210.50-11.56L210.50-11.56Q210.75-12.38 211.13-13.13L211.13-13.13L211.13-13.13Q211.88-14.81 212.06-16.38L212.06-16.38L212.06-16.38Q212.25-17.94 212.38-20.13L212.38-20.13L212.38-20.13Q212.44-21.31 212.22-21.88L212.22-21.88L212.22-21.88Q212-22.44 211.88-23.44L211.88-23.44L211.88-23.44Q211.81-24.13 211.81-24.72L211.81-24.72L211.81-24.72Q211.81-25.31 211.56-25.75L211.56-25.75L211.56-25.75Q211.25-26.31 210.41-26.50L210.41-26.50L210.41-26.50Q209.56-26.69 209.06-27.19L209.06-27.19L209.06-27.19Q208.56-28 208-28.75L208-28.75L208-28.75Q207.44-29.50 206.63-30L206.63-30L206.63-30Q206.31-29.94 206.19-30L206.19-30L206.19-30Q206.06-30.06 205.94-30.06ZM253.44-35.13L253.44-35.13L253.44-35.13Q253.94-35 253.94-34.41L253.94-34.41L253.94-34.41Q253.94-33.81 254.19-33.50L254.19-33.50L254.19-33.50Q254.81-33.88 255.75-34.28L255.75-34.28L255.75-34.28Q256.69-34.69 257.88-34.50L257.88-34.50L257.88-34.50Q258.19-33.75 258.19-33.09L258.19-33.09L258.19-33.09Q258.19-32.44 258.06-31.81L258.06-31.81L258.06-31.81Q257.94-31.19 257.75-30.53L257.75-30.53L257.75-30.53Q257.56-29.88 257.44-29.13L257.44-29.13L257.44-29.13Q257.31-27.88 257.13-27.19L257.13-27.19L257.13-27.19Q256.94-26.50 256.69-25.56L256.69-25.56L256.69-25.56Q256.38-24.56 256.22-23.59L256.22-23.59L256.22-23.59Q256.06-22.63 255.88-21.75L255.88-21.75L255.88-21.75Q255.69-20.88 255.38-20.16L255.38-20.16L255.38-20.16Q255.06-19.44 254.44-18.88L254.44-18.88L254.44-18.88Q254.50-16.31 253.84-13.69L253.84-13.69L253.84-13.69Q253.19-11.06 252.31-9L252.31-9L252.31-9Q252.06-8.44 251.91-7.81L251.91-7.81L251.91-7.81Q251.75-7.19 251.56-6.75L251.56-6.75L251.56-6.75Q251.38-6.38 251.09-6.03L251.09-6.03L251.09-6.03Q250.81-5.69 250.50-5.31L250.50-5.31L250.50-5.31Q249.63-3.69 248.66-2.28L248.66-2.28L248.66-2.28Q247.69-0.88 245.94-0.19L245.94-0.19L245.94-0.19Q245.44 0 245.03 0.13L245.03 0.13L245.03 0.13Q244.63 0.25 244.19 0.50L244.19 0.50L244.19 0.50Q243.63 0.81 242.72 1.38L242.72 1.38L242.72 1.38Q241.81 1.94 241 2L241 2L241 2Q240.56 2 240 1.81L240 1.81L240 1.81Q239.44 1.63 238.94 1.63L238.94 1.63L238.94 1.63Q238.38 1.63 237.72 1.72L237.72 1.72L237.72 1.72Q237.06 1.81 236.47 1.81L236.47 1.81L236.47 1.81Q235.88 1.81 235.38 1.69L235.38 1.69L235.38 1.69Q234.88 1.56 234.56 1.06L234.56 1.06L234.56 1.06Q233.81 0.94 233.19 1.38L233.19 1.38L233.19 1.38Q232.56 1.81 231.88 1.81L231.88 1.81L231.88 1.81Q231.13 1.75 230.59 1.25L230.59 1.25L230.59 1.25Q230.06 0.75 229.38 0.44L229.38 0.44L229.38 0.44Q228.94 0.69 228.56 0.66L228.56 0.66L228.56 0.66Q228.19 0.63 227.75 0.75L227.75 0.75L227.75 0.75Q227.38 0.50 227 0.41L227 0.41L227 0.41Q226.63 0.31 226.25 0.06L226.25 0.06L226.25 0.06Q225.56-0.50 225.22-1.41L225.22-1.41L225.22-1.41Q224.88-2.31 224.63-3.34L224.63-3.34L224.63-3.34Q224.38-4.38 224.09-5.34L224.09-5.34L224.09-5.34Q223.81-6.31 223.25-7L223.25-7L223.25-7Q223.44-8.31 223.81-9.44L223.81-9.44L223.81-9.44Q224.19-10.56 224.63-11.63L224.63-11.63L224.63-11.63Q224.81-12.38 224.84-13.28L224.84-13.28L224.84-13.28Q224.88-14.19 224.91-15.09L224.91-15.09L224.91-15.09Q224.94-16 225.06-16.91L225.06-16.91L225.06-16.91Q225.19-17.81 225.50-18.56L225.50-18.56L225.50-18.56Q225.63-18.88 226.06-19.22L226.06-19.22L226.06-19.22Q226.50-19.56 226.69-19.88L226.69-19.88L226.69-19.88Q226.88-20.38 227-21.03L227-21.03L227-21.03Q227.13-21.69 227.25-22.19L227.25-22.19L227.25-22.19Q227.38-23 227.50-24.19L227.50-24.19L227.50-24.19Q227.63-25.38 227.69-26.25L227.69-26.25L227.69-26.25Q227.81-27.88 228.09-29.34L228.09-29.34L228.09-29.34Q228.38-30.81 229.50-31.44L229.50-31.44L229.50-31.44Q230.44-31.69 231.22-32.13L231.22-32.13L231.22-32.13Q232-32.56 233.31-32.31L233.31-32.31L233.31-32.31Q233.63-32.25 234.09-32.09L234.09-32.09L234.09-32.09Q234.56-31.94 234.94-31.81L234.94-31.81L234.94-31.81Q235.81-31.56 236.34-31.41L236.34-31.41L236.34-31.41Q236.88-31.25 237-30.19L237-30.19L237-30.19Q237.06-29.88 236.94-29.16L236.94-29.16L236.94-29.16Q236.81-28.44 236.63-27.94L236.63-27.94L236.63-27.94Q236.50-27.63 236.25-27.38L236.25-27.38L236.25-27.38Q236-27.13 235.88-26.81L235.88-26.81L235.88-26.81Q235.75-26.63 235.78-26.38L235.78-26.38L235.78-26.38Q235.81-26.13 235.69-25.94L235.69-25.94L235.69-25.94Q235.56-25.63 235.19-24.94L235.19-24.94L235.19-24.94Q234.81-24.25 234.69-23.94L234.69-23.94L234.69-23.94Q234.31-23.25 234.06-22.50L234.06-22.50L234.06-22.50Q233.81-21.75 233.50-20.88L233.50-20.88L233.50-20.88Q233.13-19.81 232.63-18.50L232.63-18.50L232.63-18.50Q232.13-17.19 231.81-15.88L231.81-15.88L231.81-15.88Q231.56-14.56 231.56-13.41L231.56-13.41L231.56-13.41Q231.56-12.25 231.38-11.06L231.38-11.06L231.38-11.06Q231.25-10.56 231.06-10.13L231.06-10.13L231.06-10.13Q230.88-9.69 231-9L231-9L231-9Q230.31-8.31 230.56-7.63L230.56-7.63L230.56-7.63Q230.81-6.94 231.31-6.19L231.31-6.19L231.31-6.19Q231.69-5.81 232.13-5.31L232.13-5.31L232.13-5.31Q232.56-4.81 233.13-4.38L233.13-4.38L233.13-4.38Q233.69-3.94 234.44-3.72L234.44-3.72L234.44-3.72Q235.19-3.50 236.13-3.63L236.13-3.63L236.13-3.63Q236.75-3.75 237.44-4.13L237.44-4.13L237.44-4.13Q238.13-4.50 238.69-4.81L238.69-4.81L238.69-4.81Q239.94-5.31 240.88-6.09L240.88-6.09L240.88-6.09Q241.81-6.88 242.25-8.13L242.25-8.13L242.25-8.13Q242.50-8.75 242.53-9.34L242.53-9.34L242.53-9.34Q242.56-9.94 242.53-10.53L242.53-10.53L242.53-10.53Q242.50-11.13 242.53-11.78L242.53-11.78L242.53-11.78Q242.56-12.44 242.88-13.19L242.88-13.19L242.88-13.19Q243.19-13.88 243.81-14.44L243.81-14.44L243.81-14.44Q244.44-15 244.63-15.75L244.63-15.75L244.63-15.75Q244.75-16.13 244.66-16.47L244.66-16.47L244.66-16.47Q244.56-16.81 244.56-17.19L244.56-17.19L244.56-17.19Q244.56-18.06 244.81-18.94L244.81-18.94L244.81-18.94Q245.06-19.81 245.41-20.72L245.41-20.72L245.41-20.72Q245.75-21.63 246.03-22.50L246.03-22.50L246.03-22.50Q246.31-23.38 246.38-24.25L246.38-24.25L246.38-24.25Q246.44-25.06 246.50-25.63L246.50-25.63L246.50-25.63Q246.56-26.19 246.66-26.66L246.66-26.66L246.66-26.66Q246.75-27.13 246.88-27.59L246.88-27.59L246.88-27.59Q247-28.06 247.31-28.69L247.31-28.69L247.31-28.69Q247.63-29.25 247.88-29.91L247.88-29.91L247.88-29.91Q248.13-30.56 248.25-31.56L248.25-31.56L248.25-31.56Q248.38-31.88 248.38-32.34L248.38-32.34L248.38-32.34Q248.38-32.81 248.56-33.19L248.56-33.19L248.56-33.19Q248.81-33.75 249.38-34.09L249.38-34.09L249.38-34.09Q249.94-34.44 250.63-34.63L250.63-34.63L250.63-34.63Q251.31-34.81 252.06-34.91L252.06-34.91L252.06-34.91Q252.81-35 253.44-35.13ZM292.06-32.69L292.06-32.69L292.06-32.69Q291.94-31.69 291.34-31.44L291.34-31.44L291.34-31.44Q290.75-31.19 290.13-30.88L290.13-30.88L290.13-30.88Q289.69-30.56 289.50-30.06L289.50-30.06L289.50-30.06Q289.31-29.56 289-29.31L289-29.31L289-29.31Q288.69-29 288.09-28.84L288.09-28.84L288.09-28.84Q287.50-28.69 287.13-28.56L287.13-28.56L287.13-28.56Q286.06-28.25 284.91-28.25L284.91-28.25L284.91-28.25Q283.75-28.25 282.88-28.13L282.88-28.13L282.88-28.13Q282.38-28 281.88-27.56L281.88-27.56L281.88-27.56Q281.38-27.13 280.81-26.88L280.81-26.88L280.81-26.88Q280.25-26.69 279.94-26.56L279.94-26.56L279.94-26.56Q279.63-26.44 279.41-26.25L279.41-26.25L279.41-26.25Q279.19-26.06 279-25.78L279-25.78L279-25.78Q278.81-25.50 278.50-25L278.50-25L278.50-25Q278.19-24.44 278.19-23.38L278.19-23.38L278.19-23.38Q278.19-22.31 278-21.63L278-21.63L278-21.63Q277.81-21.06 277.59-20.31L277.59-20.31L277.59-20.31Q277.38-19.56 277.13-18.69L277.13-18.69L277.13-18.69Q277-18.19 277-17.59L277-17.59L277-17.59Q277-17 276.88-16.50L276.88-16.50L276.88-16.50Q276.69-15.88 276.28-15.56L276.28-15.56L276.28-15.56Q275.88-15.25 275.69-14.44L275.69-14.44L275.69-14.44Q275.56-14.06 275.59-13.66L275.59-13.66L275.59-13.66Q275.63-13.25 275.56-12.88L275.56-12.88L275.56-12.88Q275.31-11.38 274.97-9.63L274.97-9.63L274.97-9.63Q274.63-7.88 274.31-6.19L274.31-6.19L274.31-6.19Q274-4.75 273.66-3.44L273.66-3.44L273.66-3.44Q273.31-2.13 272.81-1L272.81-1L272.81-1Q272.31-1.06 271.81-0.72L271.81-0.72L271.81-0.72Q271.31-0.38 270.81-0.25L270.81-0.25L270.81-0.25Q270.38-0.13 269.97-0.13L269.97-0.13L269.97-0.13Q269.56-0.13 269.19 0.19L269.19 0.19L269.19 0.19Q268.75 0.63 268.06 1.34L268.06 1.34L268.06 1.34Q267.38 2.06 266.88 2.19L266.88 2.19L266.88 2.19Q266.44 2.31 266.09 2.19L266.09 2.19L266.09 2.19Q265.75 2.06 265.44 2L265.44 2L265.44 2Q264.94 2 264.47 2.03L264.47 2.03L264.47 2.03Q264 2.06 263.38 2L263.38 2L263.38 2Q263.13 1.38 263.19 0.66L263.19 0.66L263.19 0.66Q263.25-0.06 263.47-0.75L263.47-0.75L263.47-0.75Q263.69-1.44 263.97-2.09L263.97-2.09L263.97-2.09Q264.25-2.75 264.38-3.38L264.38-3.38L264.38-3.38Q264.50-3.81 264.53-4.31L264.53-4.31L264.53-4.31Q264.56-4.81 264.75-5.31L264.75-5.31L264.75-5.31Q264.94-5.88 265.34-6.34L265.34-6.34L265.34-6.34Q265.75-6.81 265.94-7.44L265.94-7.44L265.94-7.44Q266.19-8.13 266.56-9.06L266.56-9.06L266.56-9.06Q266.94-10 267-10.63L267-10.63L267-10.63Q267.13-11.38 266.97-12.06L266.97-12.06L266.97-12.06Q266.81-12.75 267.06-13.56L267.06-13.56L267.06-13.56Q267.19-13.94 267.41-14.22L267.41-14.22L267.41-14.22Q267.63-14.50 267.75-15L267.75-15L267.75-15Q267.94-15.69 268-16.47L268-16.47L268-16.47Q268.06-17.25 268.19-18L268.19-18L268.19-18Q268.31-18.69 268.44-19.34L268.44-19.34L268.44-19.34Q268.56-20 268.75-20.69L268.75-20.69L268.75-20.69Q268.94-21.50 269.16-22.22L269.16-22.22L269.16-22.22Q269.38-22.94 269.53-23.63L269.53-23.63L269.53-23.63Q269.69-24.31 269.69-24.97L269.69-24.97L269.69-24.97Q269.69-25.63 269.31-26.38L269.31-26.38L269.31-26.38Q268.94-27.06 268.31-27.38L268.31-27.38L268.31-27.38Q267.69-27.69 266.94-27.75L266.94-27.75L266.94-27.75Q266.19-27.81 265.31-27.75L265.31-27.75L265.31-27.75Q264.44-27.69 263.63-27.69L263.63-27.69L263.63-27.69Q263.31-27.88 263.06-28.38L263.06-28.38L263.06-28.38Q262.81-28.88 262.38-29.06L262.38-29.06L262.38-29.06Q261.63-29.31 260.72-29.31L260.72-29.31L260.72-29.31Q259.81-29.31 259.38-30L259.38-30L259.38-30Q259-30.94 259.34-31.81L259.34-31.81L259.34-31.81Q259.69-32.69 260.19-33.06L260.19-33.06L260.19-33.06Q262.50-33.44 265-33.03L265-33.03L265-33.03Q267.50-32.63 270-32.69L270-32.69L270-32.69Q271-32.75 272-33.06L272-33.06L272-33.06Q273-33.38 274.06-33.06L274.06-33.06L274.06-33.06Q274.38-32.94 275.16-32.66L275.16-32.66L275.16-32.66Q275.94-32.38 276.25-32.25L276.25-32.25L276.25-32.25Q276.56-32.19 276.88-32.25L276.88-32.25L276.88-32.25Q277.19-32.31 277.50-32.25L277.50-32.25L277.50-32.25Q278-32.25 278.47-32.09L278.47-32.09L278.47-32.09Q278.94-31.94 279.44-31.94L279.44-31.94L279.44-31.94Q280.06-31.94 280.34-31.97L280.34-31.97L280.34-31.97Q280.63-32 280.84-32.06L280.84-32.06L280.84-32.06Q281.06-32.13 281.31-32.22L281.31-32.22L281.31-32.22Q281.56-32.31 282.13-32.38L282.13-32.38L282.13-32.38Q282.63-32.44 283.13-32.31L283.13-32.31L283.13-32.31Q283.63-32.19 284.13-32.19L284.13-32.19L284.13-32.19Q285.50-32.13 286.78-32.53L286.78-32.53L286.78-32.53Q288.06-32.94 289.31-33.06L289.31-33.06L289.31-33.06Q290-33.13 290.72-33.09L290.72-33.09L290.72-33.09Q291.44-33.06 292.06-32.69ZM318.63-29.19L318.63-29.19L318.63-29.19Q316.94-28.38 315.25-28.38L315.25-28.38L315.25-28.38Q313.56-28.38 311.50-28.50L311.50-28.50L311.50-28.50Q310.94-28.50 310.28-28.44L310.28-28.44L310.28-28.44Q309.63-28.38 309.06-28.31L309.06-28.31L309.06-28.31Q306.13-28 304.13-26.09L304.13-26.09L304.13-26.09Q302.13-24.19 301.19-21.31L301.19-21.31L301.19-21.31Q300.88-20.25 300.69-19.38L300.69-19.38L300.69-19.38Q300.50-18.50 301.50-18.38L301.50-18.38L301.50-18.38Q302.13-18.25 302.75-18.38L302.75-18.38L302.75-18.38Q303.38-18.50 304.03-18.72L304.03-18.72L304.03-18.72Q304.69-18.94 305.31-19.13L305.31-19.13L305.31-19.13Q305.94-19.31 306.56-19.31L306.56-19.31L306.56-19.31Q306.81-19.31 307.03-19.19L307.03-19.19L307.03-19.19Q307.25-19.06 307.50-19.06L307.50-19.06L307.50-19.06Q308.56-18.94 309.75-19.22L309.75-19.22L309.75-19.22Q310.94-19.50 311.94-19.25L311.94-19.25L311.94-19.25Q312.13-19.19 312.28-19.03L312.28-19.03L312.28-19.03Q312.44-18.88 312.75-18.75L312.75-18.75L312.75-18.75Q313.56-18.44 314.69-18.34L314.69-18.34L314.69-18.34Q315.81-18.25 316.50-17.94L316.50-17.94L316.50-17.94Q316.81-17.81 317.13-17.47L317.13-17.47L317.13-17.47Q317.44-17.13 317.44-17L317.44-17L317.44-17Q317.44-16.31 316.63-16.13L316.63-16.13L316.63-16.13Q315.81-15.94 315.25-15.88L315.25-15.88L315.25-15.88Q314.75-15.81 314.25-15.88L314.25-15.88L314.25-15.88Q313.75-15.94 313.25-15.81L313.25-15.81L313.25-15.81Q312.38-15.69 311.56-15.47L311.56-15.47L311.56-15.47Q310.75-15.25 309.81-14.94L309.81-14.94L309.81-14.94Q308.75-14.56 307.81-14.03L307.81-14.03L307.81-14.03Q306.88-13.50 305.75-13.38L305.75-13.38L305.75-13.38Q304.94-13.25 304.19-13.38L304.19-13.38L304.19-13.38Q303.44-13.50 302.56-13.38L302.56-13.38L302.56-13.38Q302.25-13.31 301.97-13.19L301.97-13.19L301.97-13.19Q301.69-13.06 301.38-13L301.38-13L301.38-13Q300.81-12.88 300.53-12.84L300.53-12.84L300.53-12.84Q300.25-12.81 300.09-12.69L300.09-12.69L300.09-12.69Q299.94-12.56 299.78-12.31L299.78-12.31L299.78-12.31Q299.63-12.06 299.31-11.56L299.31-11.56L299.31-11.56Q298.81-10.44 298.69-9.16L298.69-9.16L298.69-9.16Q298.56-7.88 298.44-6.44L298.44-6.44L298.44-6.44Q299.13-5.75 299.75-5.34L299.75-5.34L299.75-5.34Q300.38-4.94 301.69-4.94L301.69-4.94L301.69-4.94Q302.38-4.94 302.78-5.09L302.78-5.09L302.78-5.09Q303.19-5.25 303.88-5.31L303.88-5.31L303.88-5.31Q304.56-5.31 305.25-5.22L305.25-5.22L305.25-5.22Q305.94-5.13 306.81-5.19L306.81-5.19L306.81-5.19Q308.63-5.31 309.88-5.66L309.88-5.66L309.88-5.66Q311.13-6 312.94-5.88L312.94-5.88L312.94-5.88Q313.31-5.88 314.28-5.81L314.28-5.81L314.28-5.81Q315.25-5.75 316.25-5.66L316.25-5.66L316.25-5.66Q317.25-5.56 318.03-5.38L318.03-5.38L318.03-5.38Q318.81-5.19 318.81-4.88L318.81-4.88L318.81-4.88Q318.81-4.50 318.34-4.09L318.34-4.09L318.34-4.09Q317.88-3.69 317.28-3.34L317.28-3.34L317.28-3.34Q316.69-3 316.09-2.78L316.09-2.78L316.09-2.78Q315.50-2.56 315.31-2.50L315.31-2.50L315.31-2.50Q314.25-2.19 313.25-2.34L313.25-2.34L313.25-2.34Q312.25-2.50 311.06-2.38L311.06-2.38L311.06-2.38Q310.19-2.25 309.50-2L309.50-2L309.50-2Q308.81-1.75 308.13-1.47L308.13-1.47L308.13-1.47Q307.44-1.19 306.72-0.91L306.72-0.91L306.72-0.91Q306-0.63 305.06-0.56L305.06-0.56L305.06-0.56Q303.81-0.44 302.94-0.28L302.94-0.28L302.94-0.28Q302.06-0.13 300.88 0.13L300.88 0.13L300.88 0.13Q300.38 0.25 299.94 0.41L299.94 0.41L299.94 0.41Q299.50 0.56 299 0.69L299 0.69L299 0.69Q297.19 1.06 295.09 0.84L295.09 0.84L295.09 0.84Q293 0.63 290.56 0.88L290.56 0.88L290.56 0.88Q289 1.06 287.78 1.34L287.78 1.34L287.78 1.34Q286.56 1.63 285.31 1.50L285.31 1.50L285.31 1.50Q284.88 1.44 284.47 1.41L284.47 1.41L284.47 1.41Q284.06 1.38 283.75 1.06L283.75 1.06L283.75 1.06Q283.88 0.56 284.31 0.19L284.31 0.19L284.31 0.19Q284.75-0.19 285.19-0.50L285.19-0.50L285.19-0.50Q285.63-0.88 286.03-1.28L286.03-1.28L286.03-1.28Q286.44-1.69 286.81-2.06L286.81-2.06L286.81-2.06Q287.19-2.56 287.44-3.28L287.44-3.28L287.44-3.28Q287.69-4 287.91-4.75L287.91-4.75L287.91-4.75Q288.13-5.50 288.41-6.16L288.41-6.16L288.41-6.16Q288.69-6.81 289.13-7.31L289.13-7.31L289.13-7.31Q288.63-8.44 289.16-9.88L289.16-9.88L289.16-9.88Q289.69-11.31 290.13-12.88L290.13-12.88L290.13-12.88Q290.25-13.25 290.25-13.63L290.25-13.63L290.25-13.63Q290.25-14 290.38-14.31L290.38-14.31L290.38-14.31Q290.50-14.94 290.94-15.41L290.94-15.41L290.94-15.41Q291.38-15.88 291.50-16.38L291.50-16.38L291.50-16.38Q291.56-16.69 291.53-17L291.53-17L291.53-17Q291.50-17.31 291.56-17.63L291.56-17.63L291.56-17.63Q291.69-18.56 292.03-19.41L292.03-19.41L292.03-19.41Q292.38-20.25 292.50-20.94L292.50-20.94L292.50-20.94Q292.63-21.44 292.53-21.97L292.53-21.97L292.53-21.97Q292.44-22.50 292.50-23L292.50-23L292.50-23Q292.63-24.25 293.03-25.38L293.03-25.38L293.03-25.38Q293.44-26.50 293.50-27.38L293.50-27.38L293.50-27.38Q293.56-28.06 293.31-28.88L293.31-28.88L293.31-28.88Q293.06-29.69 292.81-30.13L292.81-30.13L292.81-30.13Q292.63-30.44 292.25-30.78L292.25-30.78L292.25-30.78Q291.88-31.13 291.50-31.44L291.50-31.44L291.50-31.44Q291.13-31.75 290.84-32.03L290.84-32.03L290.84-32.03Q290.56-32.31 290.56-32.56L290.56-32.56L290.56-32.56Q290.63-33.25 291.13-33.28L291.13-33.28L291.13-33.28Q291.63-33.31 292.06-33.69L292.06-33.69L292.06-33.69Q294.31-33.63 296.34-33.19L296.34-33.19L296.34-33.19Q298.38-32.75 300.56-32.63L300.56-32.63L300.56-32.63Q301.38-32.50 302.25-32.66L302.25-32.66L302.25-32.66Q303.13-32.81 303.94-32.88L303.94-32.88L303.94-32.88Q305.25-32.94 306.91-32.50L306.91-32.50L306.91-32.50Q308.56-32.06 310.19-32.19L310.19-32.19L310.19-32.19Q312.38-32.31 314.31-32.31L314.31-32.31L314.31-32.31Q316.25-32.31 318.38-32.44L318.38-32.44L318.38-32.44Q318.75-32.13 319.50-32.16L319.50-32.16L319.50-32.16Q320.25-32.19 321.03-32.28L321.03-32.28L321.03-32.28Q321.81-32.38 322.47-32.31L322.47-32.31L322.47-32.31Q323.13-32.25 323.38-31.75L323.38-31.75L323.38-31.75Q323.75-30.88 323.25-30.25L323.25-30.25L323.25-30.25Q322.75-29.63 321.88-29.44L321.88-29.44L321.88-29.44Q321.63-29.44 321.19-29.38L321.19-29.38L321.19-29.38Q320.75-29.31 320.25-29.25L320.25-29.25L320.25-29.25Q319.75-29.19 319.28-29.19L319.28-29.19L319.28-29.19Q318.81-29.19 318.63-29.19Z" fill="#ccc"></path></g></g><style>text {
  font-size: 64px;
  font-family: Arial Black;
  dominant-baseline: central;
  text-anchor: middle;
}</style></svg>