<svg width="682.190380859375px" height="132.8px" xmlns="http://www.w3.org/2000/svg" viewBox="-91.09519042968748 8.599999999999994 682.190380859375 132.8" style="background: rgba(0, 0, 0, 0);" preserveAspectRatio="xMidYMid"><defs><filter id="editing-extrusion" x="-100%" y="-100%" width="300%" height="300%"><feFlood result="color1" flood-color="#444"></feFlood><feConvolveMatrix order="8,8" divisor="1" kernelMatrix="1 0 0 0 0 0 0 0 0 1 0 0 0 0 0 0 0 0 1 0 0 0 0 0 0 0 0 1 0 0 0 0 0 0 0 0 1 0 0 0 0 0 0 0 0 1 0 0 0 0 0 0 0 0 1 0 0 0 0 0 0 0 0 1" in="SourceAlpha" result="extrude"></feConvolveMatrix><feComposite in="color1" in2="extrude" result="comp-extrude" operator="in"></feComposite><feOffset dx="4" dy="4" in="comp-extrude" result="offset-extrude"></feOffset><feMerge><feMergeNode in="offset-extrude"></feMergeNode><feMergeNode in="SourceGraphic"></feMergeNode></feMerge></filter></defs><g filter="url(#editing-extrusion)"><g transform="translate(7.475174903869629, 100.67000007629395)"><path d="M38.72-6.75L38.72-6.75L45.03-7.34L45.03-7.34Q47.81-7.34 47.81-5.86L47.81-5.86L47.81-5.86Q47.81-4.38 46-3.28L46-3.28L46-3.28Q41.56-0.63 36.50 0.31L36.50 0.31L36.50 0.31Q31.44 1.25 26.64 1.25L26.64 1.25L26.64 1.25Q21.84 1.25 19.80 1.08L19.80 1.08L19.80 1.08Q17.75 0.91 15.73 0.38L15.73 0.38L15.73 0.38Q13.72-0.16 12.44-1.06L12.44-1.06L12.44-1.06Q9.66-3.06 9.66-7.22L9.66-7.22L9.66-7.22Q9.66-14.44 18.38-25.38L18.38-25.38L18.38-25.38Q24.97-33.63 29.56-35L29.56-35L29.56-35Q31.97-35.72 35.17-35.72L35.17-35.72L35.17-35.72Q38.38-35.72 38.38-33.28L38.38-33.28L38.38-33.28Q38.38-32.47 37.91-31.34L37.91-31.34L37.91-31.34Q36.13-27.69 34.78-22.70L34.78-22.70L34.78-22.70Q33.44-17.72 33.44-13.75L33.44-13.75L33.44-13.75Q33.44-6.75 38.72-6.75ZM7-32.47L7-32.47L7-32.47Q5.41-32.47 5.41-34.31L5.41-34.31L5.41-34.31Q5.41-36.34 6.63-39.88L6.63-39.88L6.63-39.88Q9-46.59 11.72-47.34L11.72-47.34L11.72-47.34Q12.47-47.63 16.25-47.63L16.25-47.63L37.38-47.13L37.38-47.13Q38.94-47.13 46.48-48.06L46.48-48.06L46.48-48.06Q54.03-49 54.41-49L54.41-49L54.41-49Q58.44-49 58.44-46.25L58.44-46.25L58.44-46.25Q58.44-45.03 57.58-42.39L57.58-42.39L57.58-42.39Q56.72-39.75 55.31-37.41L55.31-37.41L55.31-37.41Q53.91-35.06 52.72-35.06L52.72-35.06L52.72-35.06Q52-35.06 49.47-36.22L49.47-36.22L49.47-36.22Q41.81-39.72 37.13-39.72L37.13-39.72L37.13-39.72Q32.44-39.72 26.28-38.81L26.28-38.81L26.28-38.81Q20.13-37.91 17.13-36.67L17.13-36.67L17.13-36.67Q14.13-35.44 11.88-34.41L11.88-34.41L11.88-34.41Q7.69-32.47 7-32.47ZM85.59-44.06L85.59-44.06L85.59-44.06Q85.59-40.72 81.89-38.23L81.89-38.23L81.89-38.23Q78.19-35.75 74.08-35.75L74.08-35.75L74.08-35.75Q69.97-35.75 67.69-37.42L67.69-37.42L67.69-37.42Q65.41-39.09 65.41-41.50L65.41-41.50L65.41-41.50Q65.41-43.91 67.16-45.88L67.16-45.88L67.16-45.88Q68.91-47.84 71.70-48.97L71.70-48.97L71.70-48.97Q74.50-50.09 77.78-50.09L77.78-50.09L77.78-50.09Q81.06-50.09 83.33-48.36L83.33-48.36L83.33-48.36Q85.59-46.63 85.59-44.06ZM76.81-5.28L76.81-5.28L76.81-5.28Q78.94-5.28 82.58-6.30L82.58-6.30L82.58-6.30Q86.22-7.31 87.88-8.11L87.88-8.11L87.88-8.11Q89.53-8.91 90.19-8.91L90.19-8.91L90.19-8.91Q91.50-8.91 91.50-7.59L91.50-7.59L91.50-7.59Q91.50-7 90.53-6.25L90.53-6.25L90.53-6.25Q87.34-3.88 79.06-1.31L79.06-1.31L79.06-1.31Q70.78 1.25 64.28 1.25L64.28 1.25L64.28 1.25Q60.25 1.25 57.53-0.03L57.53-0.03L57.53-0.03Q54.81-1.31 54.81-3.94L54.81-3.94L54.81-3.94Q54.81-5.53 57.53-11.75L57.53-11.75L57.53-11.75Q62.66-23.53 62.66-29.50L62.66-29.50L62.63-30.69L62.63-30.69Q62.63-32.25 65.66-32.25L65.66-32.25L81.09-32.59L81.09-32.59Q81.91-32.59 82.31-32.11L82.31-32.11L82.31-32.11Q82.72-31.63 82.72-31.03L82.72-31.03L82.72-31.03Q82.72-28.88 80.75-23.92L80.75-23.92L80.75-23.92Q78.78-18.97 76.81-14.19L76.81-14.19L76.81-14.19Q74.84-9.41 74.84-7.34L74.84-7.34L74.84-7.34Q74.84-5.28 76.81-5.28ZM97.41-32.16L97.41-32.16L112.22-32.50L112.22-32.50Q113.03-32.50 113.44-32.02L113.44-32.02L113.44-32.02Q113.84-31.53 113.84-30.83L113.84-30.83L113.84-30.83Q113.84-30.13 113.50-28.56L113.50-28.56L113.50-28.56Q121.84-33.16 128.03-33.16L128.03-33.16L128.03-33.16Q130.72-33.16 133.02-31.81L133.02-31.81L133.02-31.81Q135.31-30.47 136-27.84L136-27.84L136-27.84Q146.19-33.16 152.88-33.16L152.88-33.16L152.88-33.16Q155.81-33.16 158.06-31.50L158.06-31.50L158.06-31.50Q160.47-29.69 160.47-26.39L160.47-26.39L160.47-26.39Q160.47-23.09 159.33-19.45L159.33-19.45L159.33-19.45Q158.19-15.81 157.05-12.66L157.05-12.66L157.05-12.66Q155.91-9.50 155.91-8.20L155.91-8.20L155.91-8.20Q155.91-6.91 156.56-6.25L156.56-6.25L156.56-6.25Q157.22-5.59 158.31-5.59L158.31-5.59L158.31-5.59Q162.34-5.59 168.31-8.41L168.31-8.41L168.31-8.41Q169.44-8.91 170.03-8.91L170.03-8.91L170.03-8.91Q171.44-8.91 171.44-7.78L171.44-7.78L171.44-7.78Q171.44-6.78 170.23-5.89L170.23-5.89L170.23-5.89Q169.03-5 166.75-3.94L166.75-3.94L166.75-3.94Q164.47-2.88 161.11-1.66L161.11-1.66L161.11-1.66Q157.75-0.44 153.22 0.41L153.22 0.41L153.22 0.41Q148.69 1.25 145.14 1.25L145.14 1.25L145.14 1.25Q141.59 1.25 139.84 0.06L139.84 0.06L139.84 0.06Q138.09-1.13 138.09-3L138.09-3L138.09-3Q138.09-4.88 139.30-8.63L139.30-8.63L139.30-8.63Q140.50-12.38 141.72-16.05L141.72-16.05L141.72-16.05Q142.94-19.72 142.94-21.39L142.94-21.39L142.94-21.39Q142.94-23.06 142.13-23.80L142.13-23.80L142.13-23.80Q141.31-24.53 139.70-24.53L139.70-24.53L139.70-24.53Q138.09-24.53 136.16-24.03L136.16-24.03L136.16-24.03Q135.66-18.69 132-7.75L132-7.75L132-7.75Q130.47-3.16 130.28-2L130.28-2L130.28-2Q130.09-0.84 130.03-0.67L130.03-0.67L130.03-0.67Q129.97-0.50 129.81-0.22L129.81-0.22L129.81-0.22Q129.53 0.28 128.63 0.28L128.63 0.28L128.63 0.28Q124.13 0.28 119.73 0.45L119.73 0.45L119.73 0.45Q115.34 0.63 114.08 0.63L114.08 0.63L114.08 0.63Q112.81 0.63 112.81-0.84L112.81-0.84L112.81-0.84Q112.81-2.31 113.78-5.22L113.78-5.22L113.78-5.22Q114.75-8.13 115.94-11L115.94-11L115.94-11Q119.03-18.63 119.03-22.38L119.03-22.38L119.03-22.38Q119.03-25.16 115.41-25.16L115.41-25.16L115.41-25.16Q113.88-25.16 112.50-24.66L112.50-24.66L112.50-24.66Q111.28-20.50 108.30-11.50L108.30-11.50L108.30-11.50Q105.31-2.50 104.94-1.38L104.94-1.38L104.94-1.38Q104.44 0.28 103.16 0.28L103.16 0.28L87.09 0.63L87.09 0.63Q86.75 0.63 86.33 0.20L86.33 0.20L86.33 0.20Q85.91-0.22 85.91-0.80L85.91-0.80L85.91-0.80Q85.91-1.38 87.23-4.89L87.23-4.89L87.23-4.89Q88.56-8.41 90.16-12.45L90.16-12.45L90.16-12.45Q91.75-16.50 93.08-21.36L93.08-21.36L93.08-21.36Q94.41-26.22 94.41-29.41L94.41-29.41L94.38-30.59L94.38-30.59Q94.38-32.16 97.41-32.16ZM218.38-8.91L218.38-8.91L218.38-8.91Q219.47-8.91 219.47-7.89L219.47-7.89L219.47-7.89Q219.47-6.88 217.98-6.02L217.98-6.02L217.98-6.02Q216.50-5.16 214.31-4.17L214.31-4.17L214.31-4.17Q212.13-3.19 208.28-1.84L208.28-1.84L208.28-1.84Q199.44 1.25 188.31 1.25L188.31 1.25L188.31 1.25Q167.19 1.25 167.19-11.75L167.19-11.75L167.19-11.75Q167.19-18.09 171.20-23.02L171.20-23.02L171.20-23.02Q175.22-27.94 181.97-30.55L181.97-30.55L181.97-30.55Q188.72-33.16 196.69-33.16L196.69-33.16L196.69-33.16Q204.66-33.16 208.36-30.69L208.36-30.69L208.36-30.69Q212.06-28.22 212.06-23.91L212.06-23.91L212.06-23.91Q212.06-19.47 208.52-16.66L208.52-16.66L208.52-16.66Q204.97-13.84 199.09-12.47L199.09-12.47L199.09-12.47Q193.19-11.09 185.56-10.53L185.56-10.53L185.56-10.53Q186.06-5.69 192.50-4.50L192.50-4.50L192.50-4.50Q194.16-4.22 196-4.22L196-4.22L196-4.22Q203.31-4.22 217.09-8.63L217.09-8.63L217.09-8.63Q217.94-8.91 218.38-8.91ZM185.59-13.97L185.59-13.97L185.59-13.97Q191.03-15.47 194.19-18.56L194.19-18.56L194.19-18.56Q197.34-21.66 197.34-26.03L197.34-26.03L197.34-26.03Q197.34-27.19 196.59-27.88L196.59-27.88L196.59-27.88Q195.84-28.56 194.33-28.56L194.33-28.56L194.33-28.56Q192.81-28.56 191.17-27.25L191.17-27.25L191.17-27.25Q189.53-25.94 188.41-23.81L188.41-23.81L188.41-23.81Q186.03-19.41 185.59-13.97ZM244.44-19.50L244.44-19.50L242.91-19.47L242.91-19.47Q240.84-13.47 239.53-9.08L239.53-9.08L239.53-9.08Q238.22-4.69 237.42-3.36L237.42-3.36L237.42-3.36Q236.63-2.03 235.70-1.23L235.70-1.23L235.70-1.23Q234.78-0.44 233.34-0.03L233.34-0.03L233.34-0.03Q230.97 0.63 226.91 0.63L226.91 0.63L226.91 0.63Q222.84 0.63 219.11-0.28L219.11-0.28L219.11-0.28Q215.38-1.19 213.16-2.52L213.16-2.52L213.16-2.52Q210.94-3.84 210.94-5.09L210.94-5.09L210.94-5.09Q210.94-5.81 211.55-6.23L211.55-6.23L211.55-6.23Q212.16-6.66 212.97-6.66L212.97-6.66L212.97-6.66Q215.84-6.66 217.20-7.58L217.20-7.58L217.20-7.58Q218.56-8.50 219.78-10.97L219.78-10.97L219.78-10.97Q221-13.44 222.20-16.69L222.20-16.69L222.20-16.69Q223.41-19.94 224.45-22.72L224.45-22.72L224.45-22.72Q225.50-25.50 226.88-28.41L226.88-28.41L226.88-28.41Q229.81-34.66 234.16-36.75L234.16-36.75L234.16-36.75Q236.25-37.75 239.72-38.30L239.72-38.30L239.72-38.30Q243.19-38.84 245.13-38.84L245.13-38.84L245.13-38.84Q247.06-38.84 247.66-38.80L247.66-38.80L247.66-38.80Q248.25-38.75 248.84-38.59L248.84-38.59L248.84-38.59Q250.06-38.28 250.06-37.22L250.06-37.22L250.06-37.22Q250.06-36.56 249.81-36L249.81-36L249.81-36Q249.56-35.44 248.30-33.30L248.30-33.30L248.30-33.30Q247.03-31.16 243.97-22.53L243.97-22.53L243.97-22.53Q260.56-24.47 260.56-34.66L260.56-34.66L260.56-34.66Q260.56-38.09 258.41-39.81L258.41-39.81L258.41-39.81Q256.19-41.53 253.91-41.91L253.91-41.91L253.91-41.91Q250.50-42.47 246.42-42.47L246.42-42.47L246.42-42.47Q242.34-42.47 237.91-41.70L237.91-41.70L237.91-41.70Q233.47-40.94 231.02-40.02L231.02-40.02L231.02-40.02Q228.56-39.09 226.64-38.33L226.64-38.33L226.64-38.33Q224.72-37.56 224.19-37.56L224.19-37.56L224.19-37.56Q222.53-37.56 222.53-38.66L222.53-38.66L222.53-38.66Q222.53-40.03 224.31-41.16L224.31-41.16L224.31-41.16Q230.50-45.13 238.47-47.19L238.47-47.19L238.47-47.19Q246.44-49.25 258.44-49.25L258.44-49.25L258.44-49.25Q264.59-49.25 268.72-47.98L268.72-47.98L268.72-47.98Q272.84-46.72 275.05-45.33L275.05-45.33L275.05-45.33Q277.25-43.94 278.66-41.66L278.66-41.66L278.66-41.66Q280.06-39.38 280.06-36.66L280.06-36.66L280.06-36.66Q280.06-33.94 279.03-31.86L279.03-31.86L279.03-31.86Q278-29.78 276.20-28.30L276.20-28.30L276.20-28.30Q274.41-26.81 271.66-25.63L271.66-25.63L271.66-25.63Q266.91-23.59 258.81-22.31L258.81-22.31L258.81-22.31Q265-22.31 268.59-20.19L268.59-20.19L268.59-20.19Q272.19-18.06 272.19-14.19L272.19-14.19L271.63-8.63L271.63-8.63Q271.63-6.38 273.91-6.06L273.91-6.06L273.91-6.06Q274.88-5.91 275.84-5.81L275.84-5.81L275.84-5.81Q278.13-5.63 278.13-4.06L278.13-4.06L278.13-4.06Q278.13-1.94 272.83-0.34L272.83-0.34L272.83-0.34Q267.53 1.25 261.22 1.25L261.22 1.25L261.22 1.25Q249.31 1.25 249.31-5.72L249.31-5.72L249.31-5.72Q249.31-7.41 250.34-10.53L250.34-10.53L250.34-10.53Q251.38-13.66 251.38-14.72L251.38-14.72L251.38-14.72Q251.38-16.69 249.75-18.09L249.75-18.09L249.75-18.09Q248.13-19.50 244.44-19.50ZM290.56-2.09L290.56-2.09L290.56-2.09Q284.69-5.63 284.69-12.81L284.69-12.81L284.69-12.81Q284.69-16.56 286.23-19.86L286.23-19.86L286.23-19.86Q287.78-23.16 290.48-25.56L290.48-25.56L290.48-25.56Q293.19-27.97 296.78-29.69L296.78-29.69L296.78-29.69Q303.97-33.16 313.25-33.16L313.25-33.16L313.25-33.16Q331.50-33.16 332.97-21.59L332.97-21.59L332.97-21.59Q335.16-20.88 337.48-20.88L337.48-20.88L337.48-20.88Q339.81-20.88 341.38-21.22L341.38-21.22L341.38-21.22Q342.94-21.56 344.33-22.25L344.33-22.25L344.33-22.25Q345.72-22.94 346.31-22.94L346.31-22.94L346.31-22.94Q347.50-22.94 347.50-21.78L347.50-21.78L347.50-21.78Q347.50-20.63 345.66-19.38L345.66-19.38L345.66-19.38Q342.19-17 336.47-17L336.47-17L336.47-17Q334.31-17 332.97-17.22L332.97-17.22L332.97-17.22Q331.97-9.34 324.84-4.13L324.84-4.13L324.84-4.13Q321.44-1.63 316.48-0.19L316.48-0.19L316.48-0.19Q311.53 1.25 306.23 1.25L306.23 1.25L306.23 1.25Q300.94 1.25 297.16 0.42L297.16 0.42L297.16 0.42Q293.38-0.41 290.56-2.09ZM301.91-10.06L301.91-10.06L301.91-10.06Q301.91-4.28 306.13-4.28L306.13-4.28L306.13-4.28Q308.81-4.28 311.14-7.22L311.14-7.22L311.14-7.22Q313.47-10.16 314.77-14.50L314.77-14.50L314.77-14.50Q316.06-18.84 316.06-23.36L316.06-23.36L316.06-23.36Q316.06-27.88 312.91-27.88L312.91-27.88L312.91-27.88Q310.16-27.88 307.58-25.28L307.58-25.28L307.58-25.28Q305-22.69 303.45-18.55L303.45-18.55L303.45-18.55Q301.91-14.41 301.91-10.06ZM348.72-32.16L348.72-32.16L362.84-32.50L362.84-32.50Q363.66-32.50 364.06-32.02L364.06-32.02L364.06-32.02Q364.47-31.53 364.47-30.58L364.47-30.58L364.47-30.58Q364.47-29.63 362.73-25.64L362.73-25.64L362.73-25.64Q361-21.66 359.25-17.17L359.25-17.17L359.25-17.17Q357.50-12.69 357.50-10.63L357.50-10.63L357.50-10.63Q357.50-6.75 361.63-6.75L361.63-6.75L361.63-6.75Q363.59-6.75 365.94-7.25L365.94-7.25L365.94-7.25Q366.69-9.91 368.44-14.28L368.44-14.28L368.44-14.28Q372.88-25.25 373.78-30.97L373.78-30.97L373.78-30.97Q373.94-32.13 375.44-32.13L375.44-32.13L375.44-32.13Q379.97-32.13 384.97-32.31L384.97-32.31L384.97-32.31Q389.97-32.50 390.73-32.50L390.73-32.50L390.73-32.50Q391.50-32.50 391.92-32.08L391.92-32.08L391.92-32.08Q392.34-31.66 392.34-31.28L392.34-31.28L392.34-31.28Q392.34-29.78 390.41-24.94L390.41-24.94L390.41-24.94Q388.47-20.09 386.53-14.92L386.53-14.92L386.53-14.92Q384.59-9.75 384.59-7.38L384.59-7.38L384.59-7.38Q384.59-5 386.70-5L386.70-5L386.70-5Q388.81-5 392.55-6.14L392.55-6.14L392.55-6.14Q396.28-7.28 397.77-8.09L397.77-8.09L397.77-8.09Q399.25-8.91 399.69-8.91L399.69-8.91L399.69-8.91Q400.88-8.91 400.88-7.78L400.88-7.78L400.88-7.78Q400.88-6.66 399.20-5.64L399.20-5.64L399.20-5.64Q397.53-4.63 395.17-3.58L395.17-3.58L395.17-3.58Q392.81-2.53 389.50-1.38L389.50-1.38L389.50-1.38Q381.88 1.25 373.97 1.25L373.97 1.25L373.97 1.25Q366.06 1.25 365.06-3L365.06-3L365.06-3Q362.03-1.75 360.09-1.05L360.09-1.05L360.09-1.05Q358.16-0.34 354.72 0.45L354.72 0.45L354.72 0.45Q351.28 1.25 348.41 1.25L348.41 1.25L348.41 1.25Q339.22 1.25 339.22-6.25L339.22-6.25L339.22-6.25Q339.22-8.84 340.22-12.55L340.22-12.55L340.22-12.55Q341.22-16.25 342.44-19.25L342.44-19.25L342.44-19.25Q345.66-27.22 345.66-29.14L345.66-29.14L345.66-29.14Q345.66-31.06 346.22-31.61L346.22-31.61L346.22-31.61Q346.78-32.16 348.72-32.16ZM425.88-31.81L425.88-31.81L434.09-32.88L434.09-32.88Q436.41-32.88 436.41-31.06L436.41-31.06L436.41-31.06Q436.41-29.25 434.22-28.80L434.22-28.80L434.22-28.80Q432.03-28.34 424.34-27.59L424.34-27.59L424.34-27.59Q423.28-24.81 421.16-19.88L421.16-19.88L421.16-19.88Q416.81-9.75 416.81-7.72L416.81-7.72L416.81-7.72Q416.81-5.50 419.56-5.50L419.56-5.50L419.56-5.50Q428.44-5.50 435.50-8.47L435.50-8.47L435.50-8.47Q436.53-8.91 437.13-8.91L437.13-8.91L437.13-8.91Q438.28-8.91 438.28-7.88L438.28-7.88L438.28-7.88Q438.28-6.84 436.78-5.84L436.78-5.84L436.78-5.84Q432.19-2.81 422.94-0.78L422.94-0.78L422.94-0.78Q413.69 1.25 405.88 1.25L405.88 1.25L405.88 1.25Q401.44 1.25 399.09-0.14L399.09-0.14L399.09-0.14Q396.75-1.53 396.75-3.97L396.75-3.97L396.75-3.97Q396.75-6.44 400-13.19L400-13.19L400-13.19Q403.66-20.75 405.25-26.47L405.25-26.47L405.25-26.47Q403.31-26.38 402.56-26.38L402.56-26.38L402.56-26.38Q400.72-26.38 400.72-27.88L400.72-27.88L400.72-27.88Q400.72-28.97 401.31-29.34L401.31-29.34L401.31-29.34Q401.91-29.72 402.55-29.88L402.55-29.88L402.55-29.88Q403.19-30.03 403.64-30.08L403.64-30.08L403.64-30.08Q404.09-30.13 404.91-30.19L404.91-30.19L404.91-30.19Q405.72-30.25 406.09-30.28L406.09-30.28L406.09-30.28Q406.50-32.66 406.50-34.75L406.50-34.75L406.47-35.94L406.47-35.94Q406.47-37.34 410.03-37.84L410.03-37.84L410.03-37.84Q411.22-38 417.50-39.41L417.50-39.41L417.50-39.41Q423.78-40.81 425.19-40.81L425.19-40.81L425.19-40.81Q427.44-40.81 427.44-39.25L427.44-39.25L427.44-39.25Q427.44-36.56 425.88-31.81ZM485.22-8.91L485.22-8.91L485.22-8.91Q486.31-8.91 486.31-7.89L486.31-7.89L486.31-7.89Q486.31-6.88 484.83-6.02L484.83-6.02L484.83-6.02Q483.34-5.16 481.16-4.17L481.16-4.17L481.16-4.17Q478.97-3.19 475.13-1.84L475.13-1.84L475.13-1.84Q466.28 1.25 455.16 1.25L455.16 1.25L455.16 1.25Q434.03 1.25 434.03-11.75L434.03-11.75L434.03-11.75Q434.03-18.09 438.05-23.02L438.05-23.02L438.05-23.02Q442.06-27.94 448.81-30.55L448.81-30.55L448.81-30.55Q455.56-33.16 463.53-33.16L463.53-33.16L463.53-33.16Q471.50-33.16 475.20-30.69L475.20-30.69L475.20-30.69Q478.91-28.22 478.91-23.91L478.91-23.91L478.91-23.91Q478.91-19.47 475.36-16.66L475.36-16.66L475.36-16.66Q471.81-13.84 465.94-12.47L465.94-12.47L465.94-12.47Q460.03-11.09 452.41-10.53L452.41-10.53L452.41-10.53Q452.91-5.69 459.34-4.50L459.34-4.50L459.34-4.50Q461-4.22 462.84-4.22L462.84-4.22L462.84-4.22Q470.16-4.22 483.94-8.63L483.94-8.63L483.94-8.63Q484.78-8.91 485.22-8.91ZM452.44-13.97L452.44-13.97L452.44-13.97Q457.88-15.47 461.03-18.56L461.03-18.56L461.03-18.56Q464.19-21.66 464.19-26.03L464.19-26.03L464.19-26.03Q464.19-27.19 463.44-27.88L463.44-27.88L463.44-27.88Q462.69-28.56 461.17-28.56L461.17-28.56L461.17-28.56Q459.66-28.56 458.02-27.25L458.02-27.25L458.02-27.25Q456.38-25.94 455.25-23.81L455.25-23.81L455.25-23.81Q452.88-19.41 452.44-13.97Z" fill="#ccc"></path></g></g><style>text {
  font-size: 64px;
  font-family: Arial Black;
  dominant-baseline: central;
  text-anchor: middle;
}</style></svg>