<svg width="463.19374999999997px" height="122px" xmlns="http://www.w3.org/2000/svg" viewBox="18.403125000000017 14 463.19374999999997 122" style="background: rgba(0, 0, 0, 0);" preserveAspectRatio="xMidYMid"><defs><filter id="editing-extrusion" x="-100%" y="-100%" width="300%" height="300%"><feFlood result="color1" flood-color="#444"></feFlood><feConvolveMatrix order="8,8" divisor="1" kernelMatrix="1 0 0 0 0 0 0 0 0 1 0 0 0 0 0 0 0 0 1 0 0 0 0 0 0 0 0 1 0 0 0 0 0 0 0 0 1 0 0 0 0 0 0 0 0 1 0 0 0 0 0 0 0 0 1 0 0 0 0 0 0 0 0 1" in="SourceAlpha" result="extrude"></feConvolveMatrix><feComposite in="color1" in2="extrude" result="comp-extrude" operator="in"></feComposite><feOffset dx="4" dy="4" in="comp-extrude" result="offset-extrude"></feOffset><feMerge><feMergeNode in="offset-extrude"></feMergeNode><feMergeNode in="SourceGraphic"></feMergeNode></feMerge></filter></defs><g filter="url(#editing-extrusion)"><g transform="translate(85.58498239517212, 99)"><path d="M6.21-31.17L6.21-31.17L6.21-31.17Q4.03-32.83 4.03-36.38L4.03-36.38L4.03-36.38Q4.03-39.94 6.37-41.79L6.37-41.79L6.37-41.79Q8.70-43.65 12.74-43.65L12.74-43.65L12.74-43.65Q15.30-43.65 21.38-42.75L21.38-42.75L25.73-42.11L25.73-42.11Q27.90-41.86 30.18-41.86L30.18-41.86L30.18-41.86Q32.45-41.86 33.98-42.82L33.98-42.82L33.98-42.82Q36.29-40.77 36.29-37.82L36.29-37.82L36.29-37.82Q36.29-34.88 33.66-32.77L33.66-32.77L33.66-32.77Q30.98-30.53 27.52-30.53L27.52-30.53L27.52-30.53Q25.86-30.53 23.17-30.98L23.17-30.98L23.17-30.98Q20.03-21.12 20.03-14.27L20.03-14.27L20.03-14.27Q20.03-7.42 23.49-3.84L23.49-3.84L23.49-3.84Q21.89-0.96 19.52 0.16L19.52 0.16L19.52 0.16Q17.15 1.28 13.60 1.28L13.60 1.28L13.60 1.28Q10.05 1.28 7.84-0.67L7.84-0.67L7.84-0.67Q5.63-2.62 5.63-6.66L5.63-6.66L5.63-6.66Q5.63-11.33 8.19-19.01L8.19-19.01L8.19-19.01Q10.75-26.62 14.59-32.45L14.59-32.45L14.59-32.45Q12.74-32.64 10.82-32.64L10.82-32.64L10.82-32.64Q6.85-32.64 6.21-31.17ZM49.60-3.52L49.60-3.52L49.60-3.52Q47.62 1.28 41.28 1.28L41.28 1.28L41.28 1.28Q38.02 1.28 35.97-0.96L35.97-0.96L35.97-0.96Q34.24-2.94 34.24-4.93L34.24-4.93L34.24-4.93Q34.24-10.11 36.61-20.22L36.61-20.22L38.98-32.64L51.97-33.92L48.06-13.70L48.06-13.70Q46.98-8.96 46.98-7.30L46.98-7.30L46.98-7.30Q46.98-3.65 49.60-3.52ZM40.13-41.54L40.13-41.54L40.13-41.54Q40.13-44.03 42.21-45.38L42.21-45.38L42.21-45.38Q44.29-46.72 47.30-46.72L47.30-46.72L47.30-46.72Q50.30-46.72 52.13-45.38L52.13-45.38L52.13-45.38Q53.95-44.03 53.95-41.54L53.95-41.54L53.95-41.54Q53.95-39.04 51.94-37.76L51.94-37.76L51.94-37.76Q49.92-36.48 46.91-36.48L46.91-36.48L46.91-36.48Q43.90-36.48 42.02-37.76L42.02-37.76L42.02-37.76Q40.13-39.04 40.13-41.54ZM101.12 1.28L101.12 1.28L101.12 1.28Q93.38 1.28 93.38-4.74L93.38-4.74L93.38-4.74Q93.38-7.36 94.50-12.45L94.50-12.45L94.50-12.45Q95.62-17.54 96-19.58L96-19.58L96-19.58Q96.90-24.26 96.90-25.73L96.90-25.73L96.90-25.73Q96.90-28.99 94.46-28.99L94.46-28.99L94.46-28.99Q92.86-28.99 91.33-26.78L91.33-26.78L91.33-26.78Q89.79-24.58 89.09-20.16L89.09-20.16L85.12 0L72.64 1.28L76.10-16.13L76.10-16.13Q76.67-19.01 77.18-22.27L77.18-22.27L77.18-22.27Q77.70-25.54 77.70-26.05L77.70-26.05L77.70-26.05Q77.70-28.99 75.52-28.99L75.52-28.99L75.52-28.99Q74.05-28.99 72.45-26.82L72.45-26.82L72.45-26.82Q70.85-24.64 69.95-20.16L69.95-20.16L66.05 0L53.44 1.28L60.16-32.64L70.59-33.92L69.50-27.46L69.50-27.46Q71.17-30.91 74.24-32.42L74.24-32.42L74.24-32.42Q77.31-33.92 82.11-33.92L82.11-33.92L82.11-33.92Q84.86-33.92 86.66-32.58L86.66-32.58L86.66-32.58Q88.45-31.23 89.02-29.06L89.02-29.06L89.02-29.06Q90.11-31.30 92.90-32.61L92.90-32.61L92.90-32.61Q95.68-33.92 99.10-33.92L99.10-33.92L99.10-33.92Q102.53-33.92 104.22-33.18L104.22-33.18L104.22-33.18Q105.92-32.45 106.94-31.23L106.94-31.23L106.94-31.23Q108.67-28.99 108.67-24.90L108.67-24.90L108.67-24.90Q108.67-20.86 106.94-12.48L106.94-12.48L106.94-12.48Q106.05-8.38 106.05-6.88L106.05-6.88L106.05-6.88Q106.05-5.38 106.91-4.48L106.91-4.48L106.91-4.48Q107.78-3.58 109.06-3.46L109.06-3.46L109.06-3.46Q108.42-1.28 106.21 0L106.21 0L106.21 0Q104 1.28 101.12 1.28ZM139.90-10.82L139.90-10.82L139.90-10.82Q141.50-9.73 141.50-7.33L141.50-7.33L141.50-7.33Q141.50-4.93 140.29-3.39L140.29-3.39L140.29-3.39Q139.07-1.86 137.09-0.83L137.09-0.83L137.09-0.83Q132.99 1.28 128.58 1.28L128.58 1.28L128.58 1.28Q124.16 1.28 121.57 0.32L121.57 0.32L121.57 0.32Q118.98-0.64 117.25-2.43L117.25-2.43L117.25-2.43Q113.86-5.82 113.86-12.03L113.86-12.03L113.86-12.03Q113.86-21.70 119.10-27.58L119.10-27.58L119.10-27.58Q124.74-33.92 134.53-33.92L134.53-33.92L134.53-33.92Q140.61-33.92 143.62-31.36L143.62-31.36L143.62-31.36Q145.86-29.44 145.86-26.30L145.86-26.30L145.86-26.30Q145.86-15.04 126.40-15.04L126.40-15.04L126.40-15.04Q126.14-13.38 126.14-11.97L126.14-11.97L126.14-11.97Q126.14-9.02 127.46-7.90L127.46-7.90L127.46-7.90Q128.77-6.78 131.20-6.78L131.20-6.78L131.20-6.78Q133.63-6.78 136.22-7.90L136.22-7.90L136.22-7.90Q138.82-9.02 139.90-10.82ZM126.85-17.79L126.85-17.79L126.85-17.79Q131.39-17.79 134.02-20.61L134.02-20.61L134.02-20.61Q136.64-23.30 136.64-27.58L136.64-27.58L136.64-27.58Q136.64-29.06 136.10-29.86L136.10-29.86L136.10-29.86Q135.55-30.66 134.46-30.66L134.46-30.66L134.46-30.66Q133.38-30.66 132.45-30.24L132.45-30.24L132.45-30.24Q131.52-29.82 130.56-28.42L130.56-28.42L130.56-28.42Q128.19-25.22 126.85-17.79ZM161.15 0L147.46 0L155.26-42.05L155.26-42.05Q161.60-42.75 170.85-42.75L170.85-42.75L170.85-42.75Q180.10-42.75 184.38-40.06L184.38-40.06L184.38-40.06Q188.67-37.38 188.67-31.97L188.67-31.97L188.67-31.97Q188.67-26.56 185.89-23.17L185.89-23.17L185.89-23.17Q183.10-19.78 178.30-18.69L178.30-18.69L178.30-18.69Q179.39-13.38 181.89-9.09L181.89-9.09L181.89-9.09Q184.19-5.06 186.88-3.78L186.88-3.78L186.88-3.78Q185.92-1.09 183.97 0.10L183.97 0.10L183.97 0.10Q182.02 1.28 179.23 1.28L179.23 1.28L179.23 1.28Q176.45 1.28 174.27-0.35L174.27-0.35L174.27-0.35Q172.10-1.98 170.37-4.99L170.37-4.99L170.37-4.99Q166.72-11.52 166.34-21.82L166.34-21.82L166.78-21.82L166.78-21.82Q171.52-21.95 173.89-24.42L173.89-24.42L173.89-24.42Q176.26-26.88 176.26-32.06L176.26-32.06L176.26-32.06Q176.26-38.53 170.82-38.78L170.82-38.78L169.41-38.78L169.41-38.78Q168.83-38.78 168.51-38.72L168.51-38.72L161.15 0ZM205.57 1.28L205.57 1.28L205.57 1.28Q191.49 1.28 191.49-11.97L191.49-11.97L191.49-11.97Q191.49-21.38 196.67-27.46L196.67-27.46L196.67-27.46Q202.18-33.92 211.71-33.92L211.71-33.92L211.71-33.92Q218.62-33.92 222.14-30.72L222.14-30.72L222.14-30.72Q225.66-27.52 225.66-20.80L225.66-20.80L225.66-20.80Q225.66-10.56 220.16-4.61L220.16-4.61L220.16-4.61Q214.78 1.28 205.57 1.28ZM207.23-26.56L207.23-26.56L207.23-26.56Q206.46-24.83 205.86-22.24L205.86-22.24L205.86-22.24Q205.25-19.65 204.48-15.55L204.48-15.55L204.48-15.55Q203.71-11.46 203.71-6.40L203.71-6.40L203.71-6.40Q203.71-4.74 204.26-3.65L204.26-3.65L204.26-3.65Q204.80-2.56 206.27-2.56L206.27-2.56L206.27-2.56Q207.74-2.56 208.67-3.26L208.67-3.26L208.67-3.26Q209.60-3.97 210.30-5.63L210.30-5.63L210.30-5.63Q211.58-8.58 212.61-14.05L212.61-14.05L212.61-14.05Q213.63-19.52 213.73-21.89L213.73-21.89L213.73-21.89Q213.82-24.26 213.82-26.02L213.82-26.02L213.82-26.02Q213.82-27.78 213.31-28.93L213.31-28.93L213.31-28.93Q212.80-30.08 211.36-30.08L211.36-30.08L211.36-30.08Q209.92-30.08 208.96-29.18L208.96-29.18L208.96-29.18Q208.00-28.29 207.23-26.56ZM249.98-2.69L249.98-2.69L249.98-2.69Q246.91 1.28 239.30 1.28L239.30 1.28L239.30 1.28Q235.33 1.28 232.45-1.12L232.45-1.12L232.45-1.12Q229.57-3.52 229.57-6.98L229.57-6.98L229.57-6.98Q229.57-8.90 229.76-9.86L229.76-9.86L234.05-32.64L247.04-33.92L242.37-9.22L242.37-9.22Q242.11-7.81 242.11-6.98L242.11-6.98L242.11-6.98Q242.11-3.26 244.35-3.26L244.35-3.26L244.35-3.26Q246.85-3.26 248.64-6.66L248.64-6.66L248.64-6.66Q249.22-7.74 249.47-9.15L249.47-9.15L254.02-32.64L266.62-33.92L261.89-8.96L261.89-8.96Q261.70-8 261.70-6.98L261.70-6.98L261.70-6.98Q261.70-5.95 262.27-4.83L262.27-4.83L262.27-4.83Q262.85-3.71 264.70-3.46L264.70-3.46L264.70-3.46Q264.32-1.92 262.98-0.90L262.98-0.90L262.98-0.90Q260.16 1.28 257.12 1.28L257.12 1.28L257.12 1.28Q254.08 1.28 252.29 0.19L252.29 0.19L252.29 0.19Q250.50-0.90 249.98-2.69ZM271.10-6.40L271.10-6.40L271.10-6.40Q271.10-8.13 272-12.48L272-12.48L275.39-29.76L271.62-29.76L271.87-31.68L271.87-31.68Q279.55-33.98 286.98-39.62L286.98-39.62L290.05-39.62L288.51-32.64L293.50-32.64L292.93-29.76L288-29.76L284.74-12.48L284.74-12.48Q283.90-8.51 283.90-7.17L283.90-7.17L283.90-7.17Q283.90-4.10 286.59-3.46L286.59-3.46L286.59-3.46Q285.95-1.28 283.65 0L283.65 0L283.65 0Q281.34 1.28 278.08 1.28L278.08 1.28L278.08 1.28Q274.82 1.28 272.96-0.77L272.96-0.77L272.96-0.77Q271.10-2.82 271.10-6.40ZM318.85-10.82L318.85-10.82L318.85-10.82Q320.45-9.73 320.45-7.33L320.45-7.33L320.45-7.33Q320.45-4.93 319.23-3.39L319.23-3.39L319.23-3.39Q318.02-1.86 316.03-0.83L316.03-0.83L316.03-0.83Q311.94 1.28 307.52 1.28L307.52 1.28L307.52 1.28Q303.10 1.28 300.51 0.32L300.51 0.32L300.51 0.32Q297.92-0.64 296.19-2.43L296.19-2.43L296.19-2.43Q292.80-5.82 292.80-12.03L292.80-12.03L292.80-12.03Q292.80-21.70 298.05-27.58L298.05-27.58L298.05-27.58Q303.68-33.92 313.47-33.92L313.47-33.92L313.47-33.92Q319.55-33.92 322.56-31.36L322.56-31.36L322.56-31.36Q324.80-29.44 324.80-26.30L324.80-26.30L324.80-26.30Q324.80-15.04 305.34-15.04L305.34-15.04L305.34-15.04Q305.09-13.38 305.09-11.97L305.09-11.97L305.09-11.97Q305.09-9.02 306.40-7.90L306.40-7.90L306.40-7.90Q307.71-6.78 310.14-6.78L310.14-6.78L310.14-6.78Q312.58-6.78 315.17-7.90L315.17-7.90L315.17-7.90Q317.76-9.02 318.85-10.82ZM305.79-17.79L305.79-17.79L305.79-17.79Q310.34-17.79 312.96-20.61L312.96-20.61L312.96-20.61Q315.58-23.30 315.58-27.58L315.58-27.58L315.58-27.58Q315.58-29.06 315.04-29.86L315.04-29.86L315.04-29.86Q314.50-30.66 313.41-30.66L313.41-30.66L313.41-30.66Q312.32-30.66 311.39-30.24L311.39-30.24L311.39-30.24Q310.46-29.82 309.50-28.42L309.50-28.42L309.50-28.42Q307.14-25.22 305.79-17.79Z" fill="#ccc"></path></g></g><style>text {
  font-size: 64px;
  font-family: Arial Black;
  dominant-baseline: central;
  text-anchor: middle;
}</style></svg>