<svg width="452.76875px" height="150.79999999999998px" xmlns="http://www.w3.org/2000/svg" viewBox="23.615624999999994 -0.3999999999999915 452.76875 150.79999999999998" style="background: rgba(0, 0, 0, 0);" preserveAspectRatio="xMidYMid"><defs><filter id="editing-extrusion" x="-100%" y="-100%" width="300%" height="300%"><feFlood result="color1" flood-color="#444"></feFlood><feConvolveMatrix order="8,8" divisor="1" kernelMatrix="1 0 0 0 0 0 0 0 0 1 0 0 0 0 0 0 0 0 1 0 0 0 0 0 0 0 0 1 0 0 0 0 0 0 0 0 1 0 0 0 0 0 0 0 0 1 0 0 0 0 0 0 0 0 1 0 0 0 0 0 0 0 0 1" in="SourceAlpha" result="extrude"></feConvolveMatrix><feComposite in="color1" in2="extrude" result="comp-extrude" operator="in"></feComposite><feOffset dx="4" dy="4" in="comp-extrude" result="offset-extrude"></feOffset><feMerge><feMergeNode in="offset-extrude"></feMergeNode><feMergeNode in="SourceGraphic"></feMergeNode></feMerge></filter></defs><g filter="url(#editing-extrusion)"><g transform="translate(89.69880798459053, 98.81499862670898)"><path d="M25.84-24.34L28-24.34L28-2.38L28-2.38Q26.56-1.13 24.16-0.28L24.16-0.28L24.16-0.28Q21.75 0.56 18.31 0.56L18.31 0.56L18.31 0.56Q14.88 0.56 12.47-0.97L12.47-0.97L12.47-0.97Q9.75-2.63 9.75-5.66L9.75-5.66L9.75-25.78L2.47-25.78L2.47-25.78Q0.22-29 0.22-32.81L0.22-32.81L0.22-32.81Q0.22-35.41 1.05-37.33L1.05-37.33L1.05-37.33Q1.88-39.25 3.09-40.31L3.09-40.31L35.41-40.31L35.41-40.31Q36.31-38.91 36.91-36.91L36.91-36.91L36.91-36.91Q37.50-34.91 37.50-32.94L37.50-32.94L37.50-32.94Q37.50-29.25 35.88-27.52L35.88-27.52L35.88-27.52Q34.25-25.78 31.50-25.78L31.50-25.78L22.34-25.78L22.34-25.78Q22.25-25.56 22.25-25.31L22.25-25.31L22.25-25.31Q22.25-24.75 22.91-24.56L22.91-24.56L22.91-24.56Q23.59-24.34 25.84-24.34L25.84-24.34ZM54.78-28.13L54.78-28.13L54.78-15.75L54.78-15.75Q54.78-11.09 57.03-9.69L57.03-9.69L57.03-9.69Q57.06-9.53 57.06-9.09L57.06-9.09L57.06-8.53L57.06-8.53Q57.06-3.94 54.56-1.63L54.56-1.63L54.56-1.63Q52.25 0.56 48.39 0.56L48.39 0.56L48.39 0.56Q44.53 0.56 42.03-1.63L42.03-1.63L42.03-1.63Q38.88-4.41 38.88-9.75L38.88-9.75L38.88-30.06L38.88-30.06Q39.44-30.47 40.09-30.72L40.09-30.72L40.09-30.72Q40.75-30.97 41.47-31.34L41.47-31.34L41.47-31.34Q40.13-32.03 39.03-33.73L39.03-33.73L39.03-33.73Q37.94-35.44 37.94-37.72L37.94-37.72L37.94-37.72Q37.94-41.66 40.53-44.16L40.53-44.16L40.53-44.16Q43.13-46.66 46.89-46.66L46.89-46.66L46.89-46.66Q50.66-46.66 53.20-44.11L53.20-44.11L53.20-44.11Q55.75-41.56 55.75-37.72L55.75-37.72L55.75-37.72Q55.75-34.63 53.81-32.30L53.81-32.30L53.81-32.30Q51.88-29.97 49.09-29.38L49.09-29.38L49.09-29.38Q49.09-28.19 50-28.19L50-28.19L50-28.19Q51.59-28.19 53.25-29.44L53.25-29.44L53.25-29.44Q54.50-28.47 54.78-28.13ZM109.16-21.69L109.03-15.47L109.03-15.47Q109.03-13.19 109.53-11.75L109.53-11.75L109.53-11.75Q110.03-10.31 111.28-9.53L111.28-9.53L111.28-9.53Q111.31-9.38 111.31-9L111.31-9L111.31-8.53L111.31-8.53Q111.31-4.25 108.81-1.84L108.81-1.84L108.81-1.84Q106.31 0.56 102.36 0.56L102.36 0.56L102.36 0.56Q98.41 0.56 96-1.59L96-1.59L96-1.59Q93.16-4.09 93.16-9.25L93.16-9.25L93.16-19.13L93.16-19.13Q93.16-21.22 91.78-21.22L91.78-21.22L91.78-21.22Q91.25-21.22 90.94-20.97L90.94-20.97L91.50-16.31L91.50-9.25L91.50-9.25Q91.50-5 92.91-2.81L92.91-2.81L92.91-2.81Q91.41-1.22 89.17-0.33L89.17-0.33L89.17-0.33Q86.94 0.56 84.63 0.56L84.63 0.56L84.63 0.56Q80.88 0.56 78.81-1.25L78.81-1.25L78.81-1.25Q76.31-3.44 76.31-8.16L76.31-8.16L76.31-19.13L76.31-19.13Q76.31-21.22 74.94-21.22L74.94-21.22L74.94-21.22Q74.41-21.22 74.09-20.97L74.09-20.97L74.66-16.31L74.66-8.03L74.66-8.03Q74.66-4.53 75.59-2.63L75.59-2.63L75.59-2.63Q72.53 0.53 67 0.53L67 0.53L67 0.53Q63.72 0.53 61.47-1.13L61.47-1.13L61.47-1.13Q58.88-3.03 58.88-6.25L58.88-6.25L58.88-21.19L58.88-21.19Q57.03-23.78 57.03-27.58L57.03-27.58L57.03-27.58Q57.03-31.38 58.88-34.16L58.88-34.16L66.41-34.16L66.41-34.16Q68.63-34.16 70.19-32.50L70.19-32.50L70.19-32.50Q68.81-31.22 68.81-30.38L68.81-30.38L68.81-30.38Q68.81-29.41 69.91-29.41L69.91-29.41L69.91-29.41Q71.28-31.78 73.69-33.19L73.69-33.19L73.69-33.19Q76.50-34.78 80.28-34.78L80.28-34.78L80.28-34.78Q83.16-34.78 85.33-33.56L85.33-33.56L85.33-33.56Q87.50-32.34 88.56-30.75L88.56-30.75L88.56-30.75Q90.03-32.75 92.39-33.77L92.39-33.77L92.39-33.77Q94.75-34.78 97.31-34.78L97.31-34.78L97.31-34.78Q102.97-34.78 106.09-31.28L106.09-31.28L106.09-31.28Q109.16-27.78 109.16-21.69L109.16-21.69ZM130.47 0.97L130.47 0.97L130.47 0.97Q121.81 0.97 116.81-3.84L116.81-3.84L116.81-3.84Q111.69-8.69 111.69-17.11L111.69-17.11L111.69-17.11Q111.69-25.53 116.97-30.47L116.97-30.47L116.97-30.47Q121.84-35.06 129.31-35.06L129.31-35.06L129.31-35.06Q136.78-35.06 141.30-30.95L141.30-30.95L141.30-30.95Q145.81-26.84 145.81-20.84L145.81-20.84L145.81-20.84Q145.81-15.50 142.09-12.78L142.09-12.78L142.09-12.78Q138.66-10.22 132.72-10.22L132.72-10.22L132.72-10.22Q128.28-10.22 125.22-12.06L125.22-12.06L125.22-12.06Q124.97-11.88 124.97-11.38L124.97-11.38L124.97-11.38Q124.97-10.44 127.44-9.66L127.44-9.66L127.44-9.66Q129.91-8.81 133.05-8.81L133.05-8.81L133.05-8.81Q136.19-8.81 138.77-9.61L138.77-9.61L138.77-9.61Q141.34-10.41 142.91-11.50L142.91-11.50L142.91-11.50Q143.66-10.84 144.11-9.08L144.11-9.08L144.11-9.08Q144.56-7.31 144.56-5.86L144.56-5.86L144.56-5.86Q144.56-4.41 144.28-3.28L144.28-3.28L144.28-3.28Q141.84-1.22 139.28-0.34L139.28-0.34L139.28-0.34Q135.66 0.97 130.47 0.97ZM130.06-20.19L130.06-20.19L130.06-20.19Q131.63-20.19 131.63-21.38L131.63-21.38L131.63-21.38Q131.63-22.50 129.97-22.50L129.97-22.50L129.97-22.50Q128.31-22.50 128.06-20.72L128.06-20.72L128.06-20.72Q128.94-20.19 130.06-20.19ZM164.91-26.69L164.91-22.22L164.91-22.22Q165.03-22.13 165.63-22.13L165.63-22.13L165.63-22.13Q166.22-22.13 166.53-22.59L166.53-22.59L166.53-22.59Q166.84-23.06 166.84-24.13L166.84-24.13L166.84-25.25L166.84-25.25Q166.84-26.38 166.58-26.86L166.58-26.86L166.58-26.86Q166.31-27.34 165.70-27.34L165.70-27.34L165.70-27.34Q165.09-27.34 164.88-27.22L164.88-27.22L164.88-27.22Q164.91-27.06 164.91-26.69L164.91-26.69ZM181.03-15.09L181.03-15.09L186.44-9.56L186.44-9.56Q185.88-4.69 183.36-2.06L183.36-2.06L183.36-2.06Q180.84 0.56 176.41 0.56L176.41 0.56L176.41 0.56Q173.06 0.56 170.59-1.03L170.59-1.03L170.59-1.03Q167.44-3.03 165.88-7.41L165.88-7.41L164.75-10.47L164.75-10.47Q163.44-10.50 161.44-10.81L161.44-10.81L161.44-10.81Q161.19-10.56 161.19-10.13L161.19-10.13L161.19-10.13Q161.19-9.28 163.72-9.13L163.72-9.13L165.50-4.63L165.50-1.97L165.50-1.97Q161.91 0.56 156.28 0.56L156.28 0.56L156.28 0.56Q152.25 0.56 149.84-1.09L149.84-1.09L149.84-1.09Q147.44-2.75 147.44-5.91L147.44-5.91L147.44-35.59L147.44-35.59Q147.44-36.97 149.97-38.27L149.97-38.27L149.97-38.27Q152.50-39.56 156.59-40.36L156.59-40.36L156.59-40.36Q160.69-41.16 164.78-41.16L164.78-41.16L164.78-41.16Q174.16-41.16 179.44-37.31L179.44-37.31L179.44-37.31Q185-33.28 185-25.97L185-25.97L185-25.97Q185-21.78 182.64-18.80L182.64-18.80L182.64-18.80Q180.28-15.81 176.69-14.66L176.69-14.66L176.69-14.66Q176.69-13.66 177.89-13.66L177.89-13.66L177.89-13.66Q179.09-13.66 181.03-15.09ZM203.25-17.41L203.25-17.41L203.25-11.94L203.25-11.94Q203.47-11.72 203.97-11.72L203.97-11.72L203.97-11.72Q204.47-11.72 204.69-12.06L204.69-12.06L204.69-12.06Q204.91-12.41 204.91-13.25L204.91-13.25L204.91-17.72L204.91-17.72Q204.91-20.72 204.66-21.70L204.66-21.70L204.66-21.70Q204.41-22.69 203.72-22.69L203.72-22.69L203.72-22.69Q203.28-22.69 202.97-22.38L202.97-22.38L202.97-22.38Q203.25-19.28 203.25-17.41ZM191.56-3.56L191.56-3.56L191.56-3.56Q186.44-8.50 186.44-16.95L186.44-16.95L186.44-16.95Q186.44-25.41 191.27-30.30L191.27-30.30L191.27-30.30Q196.09-35.19 203.94-35.19L203.94-35.19L203.94-35.19Q211.78-35.19 216.63-30.09L216.63-30.09L216.63-30.09Q221.44-25 221.44-16.83L221.44-16.83L221.44-16.83Q221.44-8.66 216.80-3.84L216.80-3.84L216.80-3.84Q212.16 0.97 204.19 0.97L204.19 0.97L204.19 0.97Q196.22 0.97 191.56-3.56ZM240.13-13.63L240.13-13.63L240.13-13.63Q240.50-13.63 240.94-13.94L240.94-13.94L240.94-13.94Q240.63-14.97 240.63-17.16L240.63-17.16L240.63-32.59L240.63-32.59Q243.94-34.59 248.59-34.59L248.59-34.59L248.59-34.59Q251.22-34.59 253.20-33.89L253.20-33.89L253.20-33.89Q255.19-33.19 256.25-32.03L256.25-32.03L256.25-15.75L256.25-15.75Q256.25-11.09 258.50-9.69L258.50-9.69L258.50-9.69Q258.53-9.53 258.53-9.09L258.53-9.09L258.53-8.53L258.53-8.53Q258.53-3.97 256.13-1.63L256.13-1.63L256.13-1.63Q253.94 0.56 250.09 0.56L250.09 0.56L250.09 0.56Q247.69 0.56 245.73-0.53L245.73-0.53L245.73-0.53Q243.78-1.63 242.81-3.72L242.81-3.72L242.81-3.72Q241.75-3.72 241.75-2.69L241.75-2.69L241.75-2.69Q241.75-1.97 242.47-1.25L242.47-1.25L242.47-1.25Q241.47-0.44 240.06 0.06L240.06 0.06L240.06 0.06Q238.66 0.56 235.92 0.56L235.92 0.56L235.92 0.56Q233.19 0.56 230.59-0.56L230.59-0.56L230.59-0.56Q227.38-1.94 225.66-4.78L225.66-4.78L225.66-4.78Q223.56-8.16 223.56-13.34L223.56-13.34L223.56-21.19L223.56-21.19Q221.97-23.97 221.97-27.31L221.97-27.31L221.97-27.31Q221.97-29.03 222.41-30.88L222.41-30.88L222.41-30.88Q222.84-32.72 223.81-34.16L223.81-34.16L230.69-34.16L230.69-34.16Q234.56-34.16 236.77-32.33L236.77-32.33L236.77-32.33Q238.97-30.50 238.97-26.78L238.97-26.78L238.97-16.66L238.97-16.66Q238.97-13.63 240.13-13.63ZM262.59-10.72L262.59-19.75L264.53-19.75L264.53-19.75Q266.09-19.75 266.09-20.78L266.09-20.78L266.09-20.78Q266.09-20.91 266.03-21.16L266.03-21.16L259.03-21.16L259.03-21.16Q258.34-23.34 258.34-26.05L258.34-26.05L258.34-26.05Q258.34-28.75 258.75-30.44L258.75-30.44L258.75-30.44Q260.53-31.56 263.66-33.88L263.66-33.88L263.66-33.88Q264.53-36 265.94-40.63L265.94-40.63L265.94-40.63Q266.13-41.25 266.38-41.84L266.38-41.84L266.38-41.84Q268.81-42.47 271.94-42.47L271.94-42.47L271.94-42.47Q275.06-42.47 278.09-41.81L278.09-41.81L278.09-34.16L283.50-34.16L283.50-34.16Q285.31-31.41 285.31-27.69L285.31-27.69L285.31-27.69Q285.31-26 284.84-24.22L284.84-24.22L284.84-24.22Q284.38-22.44 283.50-21.19L283.50-21.19L279.03-21.19L279.03-16.47L279.03-16.47Q279.03-12.47 282.38-12.47L282.38-12.47L283.72-12.47L283.72-12.47Q284.38-10.09 284.38-8.34L284.38-8.34L284.38-8.34Q284.38-4.03 281.67-1.73L281.67-1.73L281.67-1.73Q278.97 0.56 273.83 0.56L273.83 0.56L273.83 0.56Q268.69 0.56 265.64-2.30L265.64-2.30L265.64-2.30Q262.59-5.16 262.59-10.72L262.59-10.72ZM304.16 0.97L304.16 0.97L304.16 0.97Q295.50 0.97 290.50-3.84L290.50-3.84L290.50-3.84Q285.38-8.69 285.38-17.11L285.38-17.11L285.38-17.11Q285.38-25.53 290.66-30.47L290.66-30.47L290.66-30.47Q295.53-35.06 303-35.06L303-35.06L303-35.06Q310.47-35.06 314.98-30.95L314.98-30.95L314.98-30.95Q319.50-26.84 319.50-20.84L319.50-20.84L319.50-20.84Q319.50-15.50 315.78-12.78L315.78-12.78L315.78-12.78Q312.34-10.22 306.41-10.22L306.41-10.22L306.41-10.22Q301.97-10.22 298.91-12.06L298.91-12.06L298.91-12.06Q298.66-11.88 298.66-11.38L298.66-11.38L298.66-11.38Q298.66-10.44 301.13-9.66L301.13-9.66L301.13-9.66Q303.59-8.81 306.73-8.81L306.73-8.81L306.73-8.81Q309.88-8.81 312.45-9.61L312.45-9.61L312.45-9.61Q315.03-10.41 316.59-11.50L316.59-11.50L316.59-11.50Q317.34-10.84 317.80-9.08L317.80-9.08L317.80-9.08Q318.25-7.31 318.25-5.86L318.25-5.86L318.25-5.86Q318.25-4.41 317.97-3.28L317.97-3.28L317.97-3.28Q315.53-1.22 312.97-0.34L312.97-0.34L312.97-0.34Q309.34 0.97 304.16 0.97ZM303.75-20.19L303.75-20.19L303.75-20.19Q305.31-20.19 305.31-21.38L305.31-21.38L305.31-21.38Q305.31-22.50 303.66-22.50L303.66-22.50L303.66-22.50Q302-22.50 301.75-20.72L301.75-20.72L301.75-20.72Q302.63-20.19 303.75-20.19Z" fill="#ccc"></path></g></g><style>text {
  font-size: 64px;
  font-family: Arial Black;
  dominant-baseline: central;
  text-anchor: middle;
}</style></svg>