<svg width="588.5032226562499px" height="112.39999999999999px" xmlns="http://www.w3.org/2000/svg" viewBox="-44.251611328124966 18.800000000000004 588.5032226562499 112.39999999999999" style="background: rgba(0, 0, 0, 0);" preserveAspectRatio="xMidYMid"><defs><filter id="editing-extrusion" x="-100%" y="-100%" width="300%" height="300%"><feFlood result="color1" flood-color="#444"></feFlood><feConvolveMatrix order="8,8" divisor="1" kernelMatrix="1 0 0 0 0 0 0 0 0 1 0 0 0 0 0 0 0 0 1 0 0 0 0 0 0 0 0 1 0 0 0 0 0 0 0 0 1 0 0 0 0 0 0 0 0 1 0 0 0 0 0 0 0 0 1 0 0 0 0 0 0 0 0 1" in="SourceAlpha" result="extrude"></feConvolveMatrix><feComposite in="color1" in2="extrude" result="comp-extrude" operator="in"></feComposite><feOffset dx="4" dy="4" in="comp-extrude" result="offset-extrude"></feOffset><feMerge><feMergeNode in="offset-extrude"></feMergeNode><feMergeNode in="SourceGraphic"></feMergeNode></feMerge></filter></defs><g filter="url(#editing-extrusion)"><g transform="translate(47.36396026611328, 95.38500022888184)"><path d="M48.96-40L47.10-29.76L38.27-29.76L33.09 0L20.93 0L26.11-29.76L17.34-29.76L19.20-40L48.96-40ZM19.46-3.07L18.94-0.19L-8.19-3.07L19.46-3.07ZM21.63-15.42L21.12-12.54L-6.02-15.42L21.63-15.42ZM22.72-21.57L22.21-18.69L-4.93-21.57L22.72-21.57ZM23.81-27.71L23.30-24.83L-3.84-27.71L23.81-27.71ZM20.54-9.28L20.03-6.40L-7.10-9.28L20.54-9.28ZM16.06-33.86L15.62-30.98L-11.52-33.86L16.06-33.86ZM17.15-40L16.64-37.12L-10.43-40L17.15-40ZM70.78 0L59.58 0L65.47-33.86L76.74-33.86L70.78 0ZM57.98-3.07L57.47-0.19L30.34-3.07L57.98-3.07ZM60.16-15.42L59.65-12.54L32.51-15.42L60.16-15.42ZM61.25-21.57L60.74-18.69L33.60-21.57L61.25-21.57ZM62.34-27.71L61.82-24.83L34.69-27.71L62.34-27.71ZM63.36-33.86L62.91-30.98L35.78-33.86L63.36-33.86ZM59.07-9.28L58.56-6.40L31.42-9.28L59.07-9.28ZM120.38-13.76L114.62 0L106.18 0L105.22-13.76L104.90-13.76L101.82 0L90.88 0L98.62-33.86L112.51-33.86L113.47-17.98L113.73-17.98L120.19-33.86L134.08-33.86L129.98 0L118.98 0L120.70-13.76L120.38-13.76ZM89.41-3.07L88.77-0.19L61.63-3.07L89.41-3.07ZM90.88-9.28L90.18-6.40L63.10-9.28L90.88-9.28ZM92.29-15.42L91.65-12.54L64.58-15.42L92.29-15.42ZM93.63-21.57L92.93-18.69L66.05-21.57L93.63-21.57ZM95.04-27.71L94.40-24.83L67.52-27.71L95.04-27.71ZM96.51-33.86L95.81-30.98L68.99-33.86L96.51-33.86ZM172.35-19.90L171.26-13.76L161.73-13.76L160.96-9.41L172.80-9.41L171.14 0L148.54 0L154.43-33.86L176.96-33.86L173.95-24.26L163.52-24.26L162.75-19.90L172.35-19.90ZM146.94-3.07L146.43-0.19L119.30-3.07L146.94-3.07ZM149.12-15.42L148.61-12.54L121.47-15.42L149.12-15.42ZM150.21-21.57L149.70-18.69L122.56-21.57L150.21-21.57ZM151.30-27.71L150.78-24.83L123.65-27.71L151.30-27.71ZM152.32-33.86L151.87-30.98L124.74-33.86L152.32-33.86ZM148.03-9.28L147.52-6.40L120.38-9.28L148.03-9.28ZM197.57-40L216.77-40L216.77-40Q227.71-40 227.71-30.21L227.71-30.21L227.71-30.21Q227.71-26.18 226.50-22.53L226.50-22.53L226.50-22.53Q224.26-15.62 219.46-13.31L219.46-13.31L223.68 0L210.30 0L207.36-11.90L204.74-11.90L202.69 0L190.53 0L197.57-40ZM206.46-21.76L209.28-21.76L209.28-21.76Q211.46-21.76 212.58-22.24L212.58-22.24L212.58-22.24Q213.70-22.72 214.11-24.99L214.11-24.99L214.11-24.99Q214.53-27.26 214.53-27.78L214.53-27.78L214.53-27.78Q214.53-29.06 213.54-29.41L213.54-29.41L213.54-29.41Q212.54-29.76 210.30-29.76L210.30-29.76L207.87-29.76L206.46-21.76ZM189.12-3.07L188.61-0.19L161.47-3.07L189.12-3.07ZM191.30-15.42L190.78-12.54L163.65-15.42L191.30-15.42ZM193.41-27.71L192.90-24.83L165.82-27.71L193.41-27.71ZM194.50-33.86L193.98-30.98L166.91-33.86L194.50-33.86ZM190.21-9.28L189.70-6.40L162.56-9.28L190.21-9.28ZM195.58-40L195.07-37.12L168-40L195.58-40ZM192.32-21.57L191.81-18.69L164.74-21.57L192.32-21.57ZM260.93-34.50L260.93-34.50L260.93-34.50Q267.84-34.50 270.78-31.84L270.78-31.84L270.78-31.84Q273.73-29.18 273.73-23.55L273.73-23.55L273.73-23.55Q273.73-20.80 273.02-16.90L273.02-16.90L273.02-16.90Q271.42-7.68 267.39-3.46L267.39-3.46L267.39-3.46Q263.36 0.77 254.72 0.77L254.72 0.77L254.72 0.77Q247.94 0.77 245.06-1.89L245.06-1.89L245.06-1.89Q242.18-4.54 242.18-10.11L242.18-10.11L242.18-10.11Q242.18-12.99 242.88-16.90L242.88-16.90L242.88-16.90Q244.48-26.11 248.45-30.30L248.45-30.30L248.45-30.30Q252.42-34.50 260.93-34.50ZM252.80-8.96L256.58-8.96L256.58-8.96Q258.43-8.96 259.36-9.41L259.36-9.41L259.36-9.41Q260.29-9.86 260.61-11.39L260.61-11.39L263.04-24.77L259.14-24.77L259.14-24.77Q257.34-24.77 256.35-24.32L256.35-24.32L256.35-24.32Q255.36-23.87 255.17-22.40L255.17-22.40L252.80-8.96ZM215.10-15.42L240.64-15.42L240.64-15.42Q240.38-13.44 240.32-12.74L240.32-12.74L215.10-15.42ZM216.26-21.57L241.86-21.57L241.28-18.88L216.26-21.57ZM215.36-9.28L240.26-9.28L240.26-9.28Q240.26-8.26 240.51-6.59L240.51-6.59L215.36-9.28ZM218.82-27.71L244.10-27.71L244.10-27.71Q243.33-26.05 243.01-25.15L243.01-25.15L218.82-27.71ZM220.93-3.07L241.60-3.07L241.60-3.07Q242.37-1.54 243.26-0.70L243.26-0.70L220.93-3.07ZM227.39-33.86L249.66-33.86L249.66-33.86Q248.13-32.96 247.04-31.74L247.04-31.74L227.39-33.86ZM290.56-15.42L290.05-12.54L262.91-15.42L290.56-15.42ZM291.65-21.57L291.14-18.69L264-21.57L291.65-21.57ZM292.74-27.71L292.22-24.83L265.09-27.71L292.74-27.71ZM293.76-33.86L293.31-30.98L266.18-33.86L293.76-33.86ZM262.72-9.28L289.79-9.28L289.79-8L289.79-8Q289.79-6.91 289.86-6.40L289.86-6.40L262.72-9.28ZM292.29-0.19L292.29-0.19L265.15-3.07L290.43-3.07L290.43-3.07Q291.14-1.28 292.29-0.19ZM302.21-8.96L305.41-8.96L305.41-8.96Q307.14-8.96 307.81-9.38L307.81-9.38L307.81-9.38Q308.48-9.79 308.74-11.39L308.74-11.39L312.77-33.86L323.52-33.86L320.19-14.78L320.19-14.78Q318.66-5.82 315.23-2.53L315.23-2.53L315.23-2.53Q311.81 0.77 303.55 0.77L303.55 0.77L303.55 0.77Q296.96 0.77 294.34-1.18L294.34-1.18L294.34-1.18Q291.71-3.14 291.71-8L291.71-8L291.71-8Q291.71-10.69 292.42-14.78L292.42-14.78L295.81-33.86L306.56-33.86L302.21-8.96ZM365.31-33.86L363.58-24.26L356.67-24.26L352.45 0L341.18 0L345.41-24.26L338.30-24.26L340.03-33.86L365.31-33.86ZM339.78-3.07L339.26-0.19L312.13-3.07L339.78-3.07ZM341.95-15.42L341.44-12.54L314.30-15.42L341.95-15.42ZM343.04-21.57L342.53-18.69L315.39-21.57L343.04-21.57ZM336.90-27.71L336.38-24.83L309.25-27.71L336.90-27.71ZM337.92-33.86L337.47-30.98L310.34-33.86L337.92-33.86ZM340.86-9.28L340.35-6.40L313.22-9.28L340.86-9.28ZM400.19-19.90L399.10-13.76L389.57-13.76L388.80-9.41L400.64-9.41L398.98 0L376.38 0L382.27-33.86L404.80-33.86L401.79-24.26L391.36-24.26L390.59-19.90L400.19-19.90ZM374.78-3.07L374.27-0.19L347.14-3.07L374.78-3.07ZM376.96-15.42L376.45-12.54L349.31-15.42L376.96-15.42ZM378.05-21.57L377.54-18.69L350.40-21.57L378.05-21.57ZM379.14-27.71L378.62-24.83L351.49-27.71L379.14-27.71ZM380.16-33.86L379.71-30.98L352.58-33.86L380.16-33.86ZM375.87-9.28L375.36-6.40L348.22-9.28L375.87-9.28Z" fill="#0000ff"></path></g></g><style>text {
  font-size: 64px;
  font-family: Arial Black;
  dominant-baseline: central;
  text-anchor: middle;
}</style></svg>